<svg width="420.312" height="281.156" viewBox="0 0 325 217.4" class="looka-1j8o68f">
  <path d="M1.385.128h19.596q.505 0 1.383 1.383v108.737h32.538q.502 0 1.068 1.067v19.912q0 .566-1.068 1.068H1.385q-.505 0-1.383-1.383V3.267Q.002.566 1.385.128m.376 4.522v1.448q8.668-2.142 16.773-2.142 1.383.376 2.447.376V2.949h-1.383q-7.284 0-17.837 1.698m0 4.902v1.447q9.424-2.83 17.464-2.83h1.068l.688.376V7.098h-3.139q-6.972 0-16.08 2.45m0 3.896v1.694q5.779-2.444 16.08-2.447h.692l2.447.376V12q0-.691-2.824-1.006-5.654.315-16.396 2.45m0 4.522v1.383q9.234-1.067 10.109-1.067l9.108.752v-1.068a45 45 0 0 0-8.04-.691h-3.14q-2.135 0-8.04.691m0 5.59v1.383a25.7 25.7 0 0 1 7.349-1.068h3.142q3.454 0 8.729.753v-1.068q-4.458-1.068-9.797-1.068H8.416q-2.2 0-6.658 1.068m0 6.66v1.008h.315q6.844-2.766 15.766-2.766l3.139.315v-1.004l-4.207-.376h-2.45Q1.757 28.711 1.757 30.22zm0 3.455v.376q0 1.133.315 1.76l-.315 2.074v.376q.692-.376 1.068-.376l1.695.376q0-2.01 9.488-3.142 2.701 0 6.969.692v-1.448h-.376q-2.888 0-5.59-.312-2.953 0-11.495 1.383 0-.44-1.759-1.759m0 11.935v1.383h.315q6.658-3.833 16.457-3.833h.377q.691.064.691.691v1.007q0 1.003-4.586 1.444-13.25 5.03-13.25 6.284v1.383q9.423-6.28 16.395-6.972.377.501.753 4.522-.82.688-5.275 1.383Q3.582 60.12 2.453 62.005l-.692 1.068v1.383q10.993-11.434 17.149-11.56 1.695.563 1.695 2.136l-8.04 3.14Q2.641 65.71 1.757 71.112v5.21h.315q0-7.664 6.658-12.938 3.708-4.709 12.253-6.973v-2.766q-1.07-3.326-1.07-4.207v-1.383q0-.878 1.067-4.207V42.09H14.7q-3.766 0-12.939 3.519zM6.28 78.46v.315q0 1.946 1.068 6.657v1.383q0 1.506-4.207 1.76-1.068-2.451-1.068-3.458h-.312v2.766l.315 2.071q-.318.628-.315 1.76v.376q.753-.624 3.14-1.068 0-1.193 2.45-1.759 2.895-3.83 6.658-3.83 4.148 0 6.972 3.142V84.36h-2.068q-1.76 0-2.135-5.21 0-5.34 4.206-6.282v-1.068h-.376q-5.21 1.756-5.21 6.973v1.444q-.003.692.688 3.454l-.695.38h-1.067q-1.126 0-1.383-4.522 0-8.793 8.04-11.56v-1.067q-5.837 0-9.108 9.423-.312.438-.312 2.451 0 1.946.691 5.275-.942 1.068-3.518 1.068-1.068-3.892-1.068-6.658 0-11.81 10.488-15.39 2.01-1.07 2.83-1.067v-1.007Q7.666 64.828 7.666 71.804q-1.383 2.448-1.383 6.658m11.871 1.38q.38.691.38 1.068H19.6q0-1.76 1.383-1.76v-1.759h-.38q-2.45.881-2.45 2.45M8.042 94.168q0 .44 3.519 3.518v1.068q-1.508 2.071-3.142 2.071-4.207 0-4.207-3.139 0-.945-2.136-2.45v-.377h-.315v1.068q.753 5.966 5.905 5.966 2.83 0 7.35 2.074 3.141 0 3.141 1.068.753 2.448.753 2.766v.753l-.376.691q-7.54 0-15.705-6.657 0-1.383-1.068-1.383v1.383q7.098 6.654 14.322 7.342l3.142.315 1.756-.315v-1.383q-1.383-1.505-1.383-2.824v-.376q1.383-3.834 1.383-4.149v-3.139q-4.522 0-9.423-5.274v-.38l2.454-.691q2.132 0 5.901 2.83a2.9 2.9 0 0 0 1.068.312V93.16q-1.318 0-3.83-2.136-2.261-.691-3.142-.691-3.892 0-5.967 3.83zm4.899 2.135q.691 0 4.525 2.075 3.139.688 3.139 1.383 0 1.759-2.766 3.139-2.95 0-5.966-1.699 1.068-2.888 1.068-4.898M1.76 108.173v1.383q0 1.383 6.281 3.14 0 .82 8.732 1.758 5.34-.312 10.868-2.45v-.312H24.5q-4.207 1.383-6.346 1.383h-.688q-7.854 0-15.705-4.902m14.322 9.108q-3.77 0-14.322-4.586v1.76q10.115 4.206 13.63 4.21h1.76q16.396-2.2 16.396-3.834 1.003 0 2.827-1.76h1.068q0 2.638-4.587 5.593-6.657 3.14-14.698 3.14h-4.525q-3.39 0-11.87-3.14v1.76q6.908 2.76 12.25 2.762h2.762q21.356-1.633 21.356-8.04.695 0 .691-3.454h-2.447q-5.403 4.898-14.322 4.898 0 .691-5.97.691m27.64-4.901v.691q0 2.01 10.807 5.593v-1.759q-1.823 0-3.142-1.383 1.82-3.264 2.45-3.83H52.08q-1.82 3.454-3.143 3.454-2.325-.946-3.139-2.45v-.316l.377-.688h-1.76q-.691.064-.691.688M14.7 130.535h-2.136a29.6 29.6 0 0 1-10.806-2.074v.691q0 .882 4.902 1.76h15.013q7.413-.692 16.457-6.282l.315-.752v-.315h-.315q-12.495 6.972-23.43 6.972m20.29 0v.377h1.696q4.213-1.004 8.04-5.59v-.692q-7.159 5.21-9.735 5.905m10.112.377h1.759q4.207-2.889 4.898-4.587v-.312h-.691zm7.664-.377v.377h1.76v-1.068h-.316q-.878.691-1.444.691M67.057.128h18.528q2.45 0 2.45 2.451v128.648q0 .566-1.003 1.068H66.738q-.566 0-1.068-1.068V1.51q0-.501 1.383-1.383m0 2.075V5.03q5.78 2.264 19.22 18.532v-1.76q0-2.45-17.084-18.155h1.383q6.464 3.58 15.701 15.013v-1.383q-4.017-6.027-12.556-13.63 1.068-.691 2.45-.691 3.204 0 7.662 4.837l2.45 2.135V8.86l-4.521-5.21 1.383-.694q1.566 0 3.139 1.382V2.203l-2.451-.315h-1.695q-4.458 0-9.8.315-2.637-.692-2.827-.692-1.383.692-2.447.692m0 7.034v1.003q13.565 10.43 18.908 21.735v.315h.312v-2.45q-3.458-7.41-13.251-16.393zm0 13.945v1.068a116 116 0 0 1 12.938 15.766q-.315.694-.315 1.006h-.376q-1.946 0-4.207-4.522-7.413-7.976-8.04-8.04v1.383q8.732 8.163 8.728 11.868-1.129.755-2.07.755-.194-.878-6.658-7.349V36.5q5.274 5.404 5.274 6.282l-1.068.688h-.691l-3.519-3.14v1.384l1.448 2.135v.689l-1.448 1.383v1.067h.38q4.02-2.888 10.488-4.522.756 0 8.356-1.759V39.26l-4.899.756q-.254-2.007-13.945-16.834zm4.583 32.162q-2.384-1.383-4.207-1.383h-.376v1.383q2.827 0 3.515 2.136.756 2.074 1.383 2.074h.376q0-3.457 2.45-5.213h2.075q2.702 0 4.522 3.454 0 1.19-4.149 2.827-1.44 2.763-1.44 4.898l.752.315q1.254-.691 2.766-.691h.688l1.068.691q-1.319 2.136-1.76 5.275 2.452 4.647 2.452 5.97a2.44 2.44 0 0 0-.377 1.382q1.068.437 4.899 4.207v-2.136l-.692-1.003v-1.071h.692v-1.383h-.312q-1.071 0-2.83.695V75.32q0-.82 3.142-1.76v-1.067q-3.394.691-3.831.691-1.76-2.074-1.76-2.45 0-1.695 5.59-3.14v-1.006l-2.447.315h-1.007q0-2.45-2.827-4.21 0-1.383 6.282-1.695v-1.447h-2.766q-.685 0-.689-.688 0-2.766 3.455-2.766v-1.444h-.312q-.692 0-3.519.691a4.57 4.57 0 0 1-2.45-2.074v-1.068q5.84-1.882 6.28-2.448v-.315q-14.633 3.58-14.633 5.905zm-4.583 7.349v1.447q1.067 3.136 1.067 3.451v2.83q3.136.313 3.14 1.004-3.58 1.447-4.207 1.447v2.445q2.135-1.756 4.583-1.756 3.142 1.067 4.149 1.067 0-3.328-5.905-5.969-1.512-5.966-2.83-5.966m0 19.6q0 1.569.376 2.074a193 193 0 0 0-.377 10.864v5.593h.377q.942-5.403 7.349-10.115 2.26-.752 3.142-.752h1.756q2.139 0 5.217 2.45h1.067v-1.006q-4.02-2.638-5.969-3.142v-5.275q0-3.766-6.281-5.59-3.644 0-5.97 4.898zm7.033-3.14q2.515 0 4.902 4.21 0 5.902-4.214 5.902.004.38-.688.38l-.376-.692v-5.59q0-2.45-.692-3.833.316 0 1.068-.377m-2.135.377h.376v2.074q0 1.82.315 3.14 0 7.158-3.142 9.107-1.63 2.451-2.071 2.451v-1.447q1.064-5.461 1.759-12.186.939-2.448 2.766-3.14m-.315 27.261h-2.136q-2.074-1.254-2.071-3.891h-.376v2.132q0 3.145 4.206 3.142c4.207-.003 4.21-1.508 4.21-4.522q1.377-2.45 3.519-2.83v.38q-1.319 4.457-6.346 12.189-5.152 4.834-5.59 7.722v1.76h2.828q10.301 0 15.39-9.485 1.003-3.644 1.003-4.522v-3.834q0-4.149-4.899-6.658-6.593 1.763-6.593 5.275-1.07 3.142-3.142 3.142m9.738-7.034q.814 0 2.136 2.136-.44 5.59-11.183 18.155-2.135 1.383-2.827 1.383-.691-.318-1.003-.315v-1.068q11.054-13.572 11.87-18.847.316 0 1.007-1.444m3.204 4.587q.691 1.129.691 2.07v1.384q-.566 4.332-3.895 9.108-5.213 3.519-6.596 3.519 0-.38-.376-.38l7.725-11.495q1.824-4.206 2.45-4.206m-17.527 6.972v.689q.694 0 1.762-3.14h-.315q-1.447.502-1.447 2.451m10.179 18.908h1.76q7.284-6.6 7.284-8.796v-.315zm-7.037 0h1.068q.501 0 1.067-1.067v-.692h-.376q-.437 0-1.76 1.76m14.387 0h1.695v-1.76q-.44 0-1.695 1.76m18.3-130.22h25.569q25.63 0 34.609 18.53 3.519 8.228 3.519 16.146v4.519q0 15.142-11.871 24.121 7.6 3.898 11.87 15.078 2.451 7.6 2.451 13.63v4.901q0 24.685-21.67 33.983-5.092 1.383-7.729 1.383H101.82q-1.383-.63-1.383-2.451V3.142q0-3.142 2.45-3.142zm-.692 1.758v2.072q9.109 10.49 9.109 16.46v4.58q-2.197 2.766-3.516 2.766-2.01-12.502-5.277-17.149h-.316v2.45q3.834 8.73 3.834 15.39v.692q0 2.132-2.074 2.827-1.448-4.275-1.444-4.902h-.316v1.383l.316 4.207q-.316 1.949-.316 3.834h.316q9.108-5.403 18.216-6.281h2.136v-2.075q-2.01 1.007-9.8 2.45-.129.313-7.35 2.767v-.315a103 103 0 0 1 18.533-16.837q9.986-7.35 20.979-11.18h.691v-.688q-1.003 0-3.454-1.068l.312.692v.376q-3.827 2.766-5.966 2.766h-.315q0-1.01-1.068-5.217h-1.383v.315q0 1.068 1.383 5.275-1.19 1.76-4.207 1.76a64 64 0 0 0-1.759-7.35h-1.698v.315q1.01 1.506 2.074 7.034 0 2.01-2.45 3.519-.692-1.254-2.448-9.108-1.07-1.76-1.383-1.76h-1.76v.315q3.52 4.397 3.52 10.553 0 2.135-3.204 3.454 0-8.732-5.213-14.322h-1.76q5.59 6.282 5.59 12.563 0 3.772-3.142 5.278h-.688V18.22q0-7.912-7.729-16.146v-.312h-3.139q9.8 8.417 9.8 17.149 0 3.139-2.075 4.21h-.691q0-10.24-10.552-21.355zm35.684.692q.627 2.827 1.383 2.827.373-.753.373-1.068 0-2.136-1.756-2.136zm-5.596 18.531v.377q1.762 0 1.762.315 9.55-5.468 22.739-9.8l-.692-1.006q-10.237 3.457-23.806 10.114m6.976 2.448.753 1.068q12.25-6.281 19.911-8.417v-.691h-.312q-3.898 0-20.352 8.04m3.519 4.586q.376.689.376 1.007 16.142-7.664 19.22-7.664v-1.068h-.312a121 121 0 0 0-19.284 7.725m-18.217-5.277v30.087h8.417q7.725 0 9.8-11.18.376-.376.376-2.827v-1.694q0-12.125-9.488-14.386zm19.973 10.49v1.448q7.287 2.702 19.223 12.939h.376V46.17l-.688-1.003 1.383-1.76v-.69h-.315q-1.763 1.006-3.519 1.006-2.136-1.196-2.136-1.698v-.75q6.343-2.89 6.343-3.454v-.691q-3.454 1.003-8.04 3.454h-.753q-3.454-2.075-3.454-3.454h.312q6.03-3.892 11.935-3.895a55 55 0 0 0-1.068-6.658q-5.15 0-19.596 6.658m19.226-5.213q0 4.525-3.142 4.521-8.23 3.522-10.491 3.519-2.322-1.383-2.766-1.383v-.376q6.976-5.593 15.016-6.281zM102.203 44.48v2.074q5.78.688 17.84 12.624 6.658 6.722 6.658 9.423v.376q-6.909-1.505-8.04-2.135-13.943-11.183-16.458-11.18v.312q6.657 4.21 13.318 9.8l1.004 1.447v.312q0 .692-2.072 1.448-7.725-7.668-12.25-8.797v1.448q10.491 4.705 10.491 8.352v.376q0 .692-.691.692-8.668-5.59-9.8-5.59v.688q5.339 3.268 8.732 6.282l8.732 10.87q.627 2.007 2.45 3.828h.753v-1.004q-5.654-7.79-5.654-8.793h.756q2.444 0 4.522 5.966h.376v-2.447q-1.447-2.014-1.447-3.143a2.77 2.77 0 0 1 1.447-.376v-1.76h-.376q-2.261.753-3.142.753-6.282 0-6.282-3.891 2.265-3.834 5.214-3.834 0 .502 1.068 1.068l1.067-.692h1.383q3.83 0 7.35 4.15h2.765v-.316q-2.074 0-2.074-2.45l-.376-2.136q6.657 0 18.907 9.488 2.828 2.762 2.828 3.827-2.01 1.76-3.519 1.76-.064-.506-3.518-3.14h-.312q1.064 2.325 2.447 3.83v.692q0 .692-.691.692 0 2.827 3.142 2.827 10.742 3.264 18.531 10.867h.377V98q0-.501-1.068-1.067l1.068-1.76V93.79q-.377 0-2.136 1.383h-.691q-2.01-1.132-2.766-2.45v-.316q2.894-2.444 5.593-2.447v-.376q0-.692-.692-.692-4.586 1.383-7.034 2.448L147.68 86.44v-.315q2.701-4.46 16.837-8.793v-.315q0-.814-4.584-2.827-19.412-19.596-33.92-19.596h-4.587q-1.193 0-3.142.376-2.45-.881-2.45-2.45 2.636-1.76 7.036-1.76v-1.068h-.752q-3.143 0-8.356 1.76-1.695 0-3.142-2.828 0-1.881 12.25-4.145v-1.068h-.376q-4.712 0-14.698 4.522l-3.142-1.76q1.505-4.708 18.216-6.28v-1.068h-.376q-11.183 0-19.223 5.654zm41.965-2.448v1.007q4.895 1.444 16.457 11.932h.376q0-.373.315-1.068-10.118-9.108-16.08-11.87zm-1.383 5.214-.315.691v.376q3.705.63 15.389 10.492l.692-1.068v-.315q-13.573-10.18-15.766-10.176m-4.522 5.59q6.03 1.88 14.321 9.8a2.9 2.9 0 0 1 1.068-.316v-.376q-9.487-8.922-14.698-9.8-.694.129-.691.691m-16.837 2.827h1.447q16.96 0 32.535 16.081 3.393 2.2 5.59 4.899 0 .88-4.207 1.383a34.6 34.6 0 0 0-10.49-10.112q-14.889-8.42-24.499-8.42-2.135-2.953-2.135-3.515h.376a3.06 3.06 0 0 1 1.383-.316m4.586 5.59q10.55 1.068 24.498 11.183 3.203 3.329 4.898 5.966-.878 1.76-2.827 1.76-9.359-9.296-17.837-11.933-9.423-2.074-9.423-5.217-.376 0-.376-.376v-.315q0-.566 1.067-1.068m-23.81 9.8v.691q15.77 13.756 15.77 17.15l-.756.375h-.691q-4.336-3.457-9.797-9.487-1.447-1.38-4.525-3.14v1.384q2.701.752 6.281 5.654v.691l-2.447.312h-.692l-3.142-2.071v1.068q1.383 1.57 1.383 1.695l-1.383 1.759v1.447q2.637-2.83 4.901-2.83 8.414.881 8.417 6.973v.376q-.752 2.45-.756 2.83v.312h.38l1.76-1.383 1.382.315q3.139-1.254 4.583-4.898V87.51h-.376q-2.261.692-3.142.692-5.78-9.36-17.15-17.15m22.366 3.52v35.68h7.35q11.307 0 13.002-15.766V91.72q0-14.383-9.8-16.833a12.2 12.2 0 0 0-2.83-.316zm-22.365 14.697v1.76q4.525 0 4.525 3.83l-.315 1.76h-.376l-3.834-3.14v1.383q2.074 2.072 2.074 3.516v.315l-2.074.691v2.136q5.152-2.702 5.97-5.278 0-6.281-4.9-6.281 0-.376-1.067-.692zm19.223 0q0 .316.376.316-1.823 4.206-4.586 4.206l-.312-.691v-1.756q0-.695 4.522-2.075m24.877 6.282v.691q0 .688 5.966 1.76a75 75 0 0 1 14.322 8.416v-1.068q-6.908-6.406-19.6-9.8zm-36.436 23.81q2.325 6.657 6.658 6.657h2.138q8.919 0 12.563-8.793-2.075-3.583-2.075-4.15.505 0 1.068-1.067h-2.447l.312 1.76v1.758q-5.34 1.634-13.315 5.905h-1.007v1.068h.315q2.136 0 11.244-4.898 1.383-.38 2.766-.38h1.38q0 5.715-10.807 7.729-5.339 0-7.725-5.593 0-2.2 3.518-2.448 0-1.511 10.115-4.586v-.315a3.1 3.1 0 0 1-2.074-.692 49 49 0 0 0-9.8 4.526h-.376v-.316q0-5.905 10.552-8.416v-1.383q-.563 0-3.203.691 0-2.386 3.203-3.891V99.76q-13.003 13-13.003 19.6m35.745-19.285-.38.752v.316q11.058 2.45 18.532 8.732 0 .562 1.447 1.447 0-.386.312-1.071-9.359-8.166-19.911-10.176m-1.76 4.207-.691 1.067v.38q3.39 0 13.63 4.522 4.902 3.518 6.658 5.274l.315-1.756q-10.24-7.603-19.911-9.487m-3.831 4.586q0 .752-1.76 1.007v.376q13.818 0 22.363 9.423l.691-1.006q-9.359-9.8-21.297-9.8m-6.66 2.766v.376q3.64 0 4.521 5.21 0 5.783-8.417 10.18-.694-.377-1.006-.377-.251 1.19-4.21 2.448l-1.383 1.447h5.216v-.38h-.691q0-1.064 2.827-1.382 1.885 0 8.732 1.762h1.068v-.38q-6.594-2.257-7.037-2.765v-.373q.82-1.76 1.759-1.76 5.532.254 11.874 3.83.753-.311 1.068-.311 0-1.698-11.183-4.586v-.319q2.01-3.515 2.766-3.83h.376q5.336 0 12.94 6.28.69 0 .69-.69-7.6-6.658-14.01-7.35l-.311-3.142q.691-.376 1.068-.376 3.644 0 14.321 6.657 0 .505 2.072 2.075.755 0 .755-.692 0-2.325-14.386-8.732-4.901-.691-6.28-2.827 0-.312-.692-.312zm-31.16 19.28h.692q.502 0 1.068-1.067v-.688q-.437 0-1.76 1.756m6.973 0h1.448v-1.068h-.38q-.498 0-1.068 1.068M186.4.003h55.656q.566 0 1.067 1.068v20.29q0 .5-1.067 1.069h-34.99v32.538h24.122q2.45 0 2.45 2.447v18.532q0 .502-1.382 1.383h-25.19v32.538h33.61q1.946 0 2.444 1.444v19.912q0 .566-1.064 1.067h-55.968q-.567 0-1.068-1.067V1.386q0-.505 1.383-1.383zm0 1.76v.314q3.328 1.32 7.349 12.248l-2.072 2.135h-1.067q-1.634-5.146-4.21-8.04v1.006q3.142 7.288 3.142 8.794v.315q-.695 1.57-1.383 1.759h-.315q-.878 0-1.068-1.383h-.376v6.973h.376q4.4-1.004 7.664-1.004h1.068q2.39 0 10.176 1.695V25.57h-.692v-.374l.692-1.067v-1.383h-.377q-2.45 1.698-2.45 2.139-9.675-1.448-11.18-1.448a26 26 0 0 1-3.833.38q1.383-5.088 12.942-13.319 6.216-5.155 14.321-8.42v-.315h-3.518q0 1.76-3.143 1.76-.878-1.76-1.382-1.76h-1.065v.315l1.068 2.136q0 1.129-3.142 2.071-2.451-4.27-3.14-4.522h-.691v.315q2.448 4.461 2.766 4.587 0 1.061-2.766 2.762h-.376l-4.902-7.664h-.691v.315q1.949 2.448 4.21 8.105-.377 1.38-3.519 3.14-2.701-7.604-6.972-11.56zm12.938 21.358v.315q1.255 0 7.729-5.213Q229.49 4.908 241.737 4.9V3.837h-.376q-12.437 0-36.054 14.386-5.657 4.084-5.969 4.898m9.108-2.136h2.136q15.267-9.359 30.09-10.49h1.068V9.425q-11.558.76-25.253 6.658-8.04 4.65-8.04 4.901m11.243-.315v.315h1.383q5.78-2.515 20.667-4.901v-1.383q-15.45 2.83-22.05 5.97m19.223 0v.314h2.83v-1.382h-.379q-1.76 1.067-2.45 1.067M186.4 33.924v1.068q3.518-.315 5.274-.315 4.525 0 14.01 1.698v-1.383q-7.098-1.76-12.627-1.76-1.756 0-6.657.692m0 5.278v1.383q4.776-.315 7.033-.315h1.76q4.711 0 10.49 2.074v-1.068q-7.6-2.45-14.006-2.45-.881 0-5.277.376m0 2.827v1.007q18.91 18.467 18.907 24.182 3.394 8.732 3.831 8.732h1.447a6.1 6.1 0 0 1-.691-2.83v-.688h.312q1.698 0 6.281 3.518h1.447v-.376q-8.417-5.905-9.8-5.905-1.759-4.583-1.759-5.59.753 0 7.664 4.898 3.641 1.383 8.794 6.973h1.382v-.376q-2.515-3.58-14.698-11.183-4.837-3.078-6.657-4.898-1.383-2.515-1.383-2.766.309 0 .312-.376 6.593 2.01 16.457 8.732 10.491 7.976 10.491 10.867h3.204v-1.068q-2.827 0-2.827-2.074-7.787-7.912-14.007-10.868-3.833-3.762-16.46-8.04l-1.383-1.76v-1.067q2.074 0 8.42 2.45v-1.382q-6.85-2.445-9.8-2.448h-1.447q0-.502-2.071-3.142v-.376q2.264-.692 3.142-.692 2.26 0 10.176 2.136v-.692q0-1.068-8.417-2.447-1.634-.377-4.525-.38h-2.448q-1.576 0-3.894-2.071m0 11.495v1.759q3.894 2.827 8.416 9.488a52.1 52.1 0 0 1 8.732 14.698q.377 0 .377 1.383v.688q0 .691-.692.691-.881 0-3.139-5.905-4.46-8.542-13.694-16.836v1.383q10.677 10.806 11.558 15.453 2.828 3.709 2.828 6.282-.377 1.067-2.136 1.067h-.315q-.566 0-1.76-4.586-5.528-8.23-10.175-12.562v1.383q9.8 11.366 9.8 16.457-1.448 1.003-2.767 1.003-3.956-8.104-6.657-11.87h-.376v1.067q0 .753 4.898 9.424v1.756q-.502 1.383-2.448 1.383-2.01-4.899-2.45-4.899v.692q0 1.19.691 4.898-.691.126-.691.753v1.006q11.996-4.901 15.765-4.901l-.376 3.518q.376 2.075 1.068 2.075c.691 0 1.402-.335 2.827-1.007v-1.444h-1.76q-.691 0-.691-.691v-.312q0-1.698 2.45-4.902v-1.444q-1.884-4.962-8.04-14.698-6.85-9.803-11.243-12.25m25.941 3.203 12.566 8.04q.942 1.383 7.034 5.59v-.691q-13.129-11.807-18.217-12.939zm9.8 0 9.8 8.04v-1.759q-.627 0-8.105-6.281zm7.349 0q0 .44 2.45 2.074v-1.07q0-.502-1.067-1.004zM186.4 99.065v.691q0 1.068.376 1.068l-.376 1.695v3.519h.376q1.193 0 3.142-.316 2.824 0 3.519 4.902v.312q0 3.834-7.037 5.97v1.758q3.705 0 8.04-5.969v-3.139q0-5.274-6.973-5.274v-.695q1.383-4.898 3.83-4.898 0-.756 4.21-1.383h2.136q2.01 1.132 2.766 2.45v1.76q-1.07 1.318-1.07 2.447 2.45 1.007 2.45 3.142v.692q0 .502-1.003 1.068 0 .942 1.759 1.759 0-1.254 3.139-4.586v-1.76q-1.57 1.448-2.451 1.448-1.76-2.39-1.76-3.519 0-.254.316-2.139 0-1.19-3.83-4.522 0-1.505 7.725-2.07v-1.069h-1.068q-5.84 0-17.84 6.658zm21.355 12.562q-2.074 5.719-2.071 7.726 0 5.088 7.664 6.284h.691q7.095 0 9.109-6.973v-.38q-.065-.626-1.76-2.762.753-2.2 1.76-2.45h1.067q1.818 0 3.831 3.142 0 .752-1.383 3.139 1.068 2.013 1.068 3.518 0 5.339-10.176 6.973l-10.112-1.383q-3.078 0-5.97 2.45h.316q.44 0 3.892-.69h3.145q7.85.694 8.417.69h1.383q10.111-1.254 10.111-8.792 0-2.953.377-6.282-1.95-4.213-5.275-4.21-3.27 0-3.834 4.902.441-.003 1.76 2.135v.312q0 4.15-8.04 5.275-6.658 0-6.658-5.275 0-3.203 2.071-7.349zm28.335 0q5.21 9.736 5.65 9.8v-2.45q-4.02-7.224-4.586-7.35zm-48.623 18.912v.373h1.383q5.715-4.773 8.793-9.485v-.691h-.376q-8.857 9.8-9.8 9.8m6.282.372h1.447q3.139-2.573 3.139-4.586h-.377q-.315 0-4.21 4.586M257.912.125h30.78q15.518 0 23.368 7.664 8.797 8.417 8.797 23.43v20.67q0 12.814-10.176 23.054L325 131.227l-1.383 1.068h-21.294q-1.512 0-5.275-18.532-1.759-5.59-7.352-30.088h-10.806v47.552q0 .566-1.065 1.068h-19.918q-.566 0-1.067-1.068V1.197q0-.57 1.067-1.069zm.692 2.827q0-.376-.376-.376v1.76h.376q9.111-2.451 14.322-2.451v-.377h-8.04q-5.655 1.448-6.282 1.444m-.376 11.183v1.003q16.331-5.21 24.121-5.21h2.45q9.8 0 29.397 8.04.064.248 3.518 2.072v-.692q0-2.952-24.185-9.108-5.716-1.383-7.285-1.383-12.376 0-28.013 5.278zm0 5.213v1.383q10.301-4.901 23.806-4.901 18.596 0 34.613 8.417.694 0 2.45 1.07 0-2.447-6.657-4.213-13.129-6.278-27.955-6.278h-3.516q-10.243 0-22.738 4.522zm0 6.658v.691h.376q12.816-5.59 21.674-5.59 12.813 0 16.457 1.757 15.013 3.586 22.362 8.355h.315v-.685q-4.525-4.081-18.155-7.66-13-3.146-18.216-3.143h-.692q-9.044 0-20.603 4.522-3.518 1.071-3.518 1.76m20.667-3.14v38.44h11.495q8.793-1.634 8.793-9.8V32.29q0-9.423-9.109-9.423zm-20.667 8.73v1.382q7.349-3.457 11.559-3.457h1.067q0 4.525-3.142 4.525-6.847 2.763-9.484 3.518v1.695q8.23 5.78 19.223 15.766V53.65q-2.766-2.135-2.766-3.891l2.766-.692v-1.383h-.315q-3.83 1.383-4.587 1.383 0-.193-2.07-2.45 0-1.13 6.972-3.143V42.47l-9.424 2.766q-2.074-1.194-2.074-1.763v-.688q8.545-4.525 11.498-4.525v-1.068h-.315q-2.953 0-11.56 4.21 0 .691-1.759.691h-.312q-3.518-2.074-3.518-3.518h.376q6.03-3.834 11.871-3.834h2.075q1.759 0 3.142-1.756v-1.007q-2.573 1.695-3.834 1.695-1.57-.688-1.76-1.383 0-3.763 5.594-7.66v-.753h-.315q-.441 0-6.282 4.207a64.3 64.3 0 0 0-12.626 3.518m41.65-4.207v.373q0 1.383 2.762 1.76v.315q0 2.45-2.074 2.447v1.068q.064.695.691.692 2.01 0 4.21-4.207 1.129-.692 2.071-.692 3.522.692 3.519 3.519v.691q0 1.13-2.136 3.828 2.451 5.345 2.451 5.969v1.007q0 .566-1.007 1.067h-.752q-.251 0-2.075-3.83a15.3 15.3 0 0 0-6.972-3.142v1.759q6.972 1.254 6.972 5.213v.692q0 .691-.691.691h-.376q-2.326-.437-5.905-2.45v3.891l1.759-.373q4.335 0 5.905 2.071h1.383V48.06l-.315-.755 1.067-.689h1.007q3.078 0 3.515 4.583v1.007l-.376 1.76 1.447 1.067h1.756l1.698-.376V51.89q-3.643-3.078-4.901-5.59-1.695-.63-1.695-2.135l.692-.316h.312q4.586 3.455 5.592 3.455V45.92q-8.355-4.645-8.355-7.661l.691-.377 7.664 4.207v-1.76q-.44 0-7.664-3.826v-.38q.315-2.325 1.068-2.45l6.593 2.45v-1.383q-8.04-2.894-8.04-5.21a8.4 8.4 0 0 0-3.14-1.763l-3.453 1.007zm-41.65 19.912v1.447q2.39 1.004 15.765 13.63 10.305 9.797 20.291 9.797h1.383q7.095 0 13.251-6.658l.38-1.759v-.376h-.377q-6.156 7.349-12.942 7.349h-1.695q-.376 0-.376.376-10.996 0-29.396-19.22l-5.908-4.586zm43.032 3.203q0 .502-.691 1.383v2.071l1.756-1.383h.691q2.075 1.573 2.075 4.526-1.573 0-5.59-.692l-.315.692v.691h1.003q1.071 0 4.21 1.068v.691l-.376 1.756q-4.966-.688-6.973-.688-.627 0-2.766 1.068v.312l2.451-.312h.692q.437 0 3.83.688h.692v.692q0 1.383-5.21 2.074-3.712 0-5.97-2.45-1.254.376-3.518.376v.315q6.22 3.203 9.484 3.203 7.224 0 9.424-7.349 0-2.45.312-2.45-1.13-6.282-5.21-6.282m15.699 1.383q.569 0 1.067 1.007 0 .752-.688.752h-.38q-.688 0-.688-.755v-.312q.126-.692.689-.692m-58.728 1.76v1.003q22.552 20.101 27.26 20.667v.315l-1.698.376h-.376q-9.424 0-24.813-14.697h-.376v1.067a99.7 99.7 0 0 0 17.528 13.63v.316l-4.902 1.067q-2.135 0-12.626-9.8v1.448q3.518 4.017 8.732 7.661l1.067 1.383q0 .878-4.21 1.444 0-1.319-5.59-6.346v1.448q4.214 4.708 4.21 5.21-.88 1.76-2.765 1.76 0-.502-1.444-1.384v4.15q11.81-6.977 24.813-6.974h2.827q12.498 0 25.504 7.35h.376q-.376-1.824-2.83-4.21-.309-.692-.312-1.004.692-3.522.692-4.586-2.2 1.57-7.726 3.142 0 .376-.315.376-7.16-2.139-10.867-2.45v-.377l.691-1.006v-.377q-7.85 0-12.878-4.522-.627 0-15.765-13.315-.44 0-4.21-2.766m59.795 5.905q-1.068 3.522-3.515 8.04h.376q1.756-2.887 3.519-7.663v-.377zm-11.18 18.532.38.691v1.448q0 .685-.756.688-2.007-1.383-2.45-1.383 0-.817 2.83-1.444m-14.698 10.488q.25 1.383.691 1.383 9.736 0 22.739 9.8 0-2.702-4.898-4.526-9.17-6.657-18.532-6.657m-33.921.691v1.448q8.04 1.881 18.908 12.183h.315v-2.072l-3.834-2.45q.126-1.13 3.834-3.519v-.691a11.26 11.26 0 0 0-4.902 2.45h-.691q-2.007-1.128-2.763-2.45v-.312q1.57-2.01 8.356-3.143v-1.067q-2.45 0-10.491 3.142zm35.677 5.278v1.383q5.97 0 18.532 6.973l4.898 3.891q0-5.586-20.98-11.932zm-35.674 3.827v1.068q9.044 2.637 17.528 10.491 1.254 2.072 1.695 2.072v-1.383q-4.271-4.96-8.732-7.726-8.668-4.522-10.491-4.522m37.06 3.143q0 1.82 5.593 2.827 5.085 1.63 16.081 9.423l2.447 1.38v-.315q-.437-1.505-12.938-9.485-3.393-1.38-11.183-3.83m-37.06 1.759v1.068q9.108 2.135 19.223 14.321v-1.383q-8.481-10.928-19.223-14.006m0 4.898v1.383q5.091 1.065 11.183 6.281 2.766 3.078 8.04 10.488v-2.447q-5.715-10.929-19.223-15.705m38.82.376q0 1.695 4.9 2.766a273 273 0 0 1 19.912 13.315v-.376q0-1.823-8.732-7.349-10.925-6.722-15.013-8.356zm-38.82 4.15v1.064q8.668 5.152 11.183 10.491 4.898 6.658 5.274 6.658h1.068v-.377q-5.966-8.796-10.488-13.63a34.4 34.4 0 0 0-7.037-4.21zm40.202 1.443v.312q0 1.695 4.902 3.143 6.85 3.705 18.216 13.315h1.76v-.377q-1.068-.312-12.627-9.8a122 122 0 0 0-12.25-6.593m-40.203 5.902v1.383q1.823 0 10.491 9.488h1.068q-8.858-10.87-11.56-10.87m41.963.379v1.003a261 261 0 0 1 14.01 9.488h1.382q-6.223-5.596-15.392-10.491m-41.962 5.59v1.382q.437 0 4.586 3.516h1.004q0-.566-5.21-4.899zm43.341 1.067v.312q0 1.95 5.278 3.519h.692q-1.133-1.255-5.97-3.83M0 142.213h12.495q.82 0 2.952 8.507 9.719 31.82 10.716 36.057h.176v-43.959q0-.32.605-.605H38.23q.82 0 .818 2.384v70.728q0 1.531-.82 1.779H26.163q-.82 0-5.163-14.842-2.169-5.803-8.897-27.55h-.215v41.608q0 .284-.784.784H0v-2.564q.855.391 2.776 1.778h.783q0-.213-3.559-2.775v-1.994q2.136.786 6.55 4.77h.997v-.214q-.214 0-3.204-2.562Q1.53 211.374 0 210.946v-2.741q2.952 2.172 10.109 8.115h.997v-.39q-.356 0-9.717-7.725Q0 207.495 0 207.208v-3.167q.392 0 11.106 9.682v-.57Q6.476 208.489 0 203.043v-3.167q3.025 1.531 11.106 9.896v-.783Q2.314 199.804 0 198.879v-2.385h.213q3.488 1.14 9.112 7.547.179 0 1.78 1.78v-.997Q4.665 197.35 0 195.89v-2.952h.213q3.846 1.137 10.075 7.936 0 .569.818.96v-.783q-5.768-6.69-8.544-7.508 0-.429-2.562-1.389v-2.386q3.525.997 11.106 8.508v-.569q0-1.64-7.545-6.763L0 189.376v-4.948q5.019 1.851 11.106 7.512v-.784q-2.205-2.599-2.207-6.336 0-3.417 2.205-10.323v-2.17q-2.526 1.389-2.989 1.387v.392l.213.996q0 3.525-5.16 7.939-2.029 1.175-2.17 1.174-.892-.39-.998-.784v-1.992q2.242 0 4.77-4.735.393-1.602.57-1.602a1.7 1.7 0 0 1-.179-.783h-.213q-.356.25-1.994 4.166-2.17 2.17-2.952 2.17v-3.559q2.026-2.205 2.56-4.377-.426-3.346-2.562-3.346v-3.383h.213l1.389.784h.57v-.179Q.926 165.137 0 162.04v-2.988q0-2.388 1.604-2.386 2.168.605 2.168 1.21v.57q-1.6 1.708-1.6 3.168 1.28.319 3.38 7.545 1.034 1.283 1.995 1.78 3.559-.177 3.559-.783v-.605h.178q0 .605.214.605.995 0 1.567-2.384v-.392l-.18-.392-1.39.179h-.212q-.392 0-.392-.392v-.392q0-.89 3.167-1.567 2.989.394 2.989 2.564-3.379 4.059-5.16 4.343l.214.997h.178q1.39-1.176 2.386-1.176v.179q0 .25-1.602 3.596l.213.96h.392q1.105-3.667 5.553-10.288 0-2.49-3.772-3.95-3.917-2.525-12.067-5.554 0-.568-3.382-.818v-6.335h.213q5.732 1.103 16.233 8.15h.213v-.213q-1.212-1.78-8.72-5.73A69 69 0 0 0 0 148.55v-1.994q6.05.75 15.84 8.152v-.213q0-.926-4.734-3.773-1.281-1.675-8.544-4.166-2.314-.568-2.562-.568zm6.158.784v.213q2.74.997 7.297 3.348-.465-1.779-.784-1.779 0 .39-.392.39-.426 0-1.993-.783v-.39l.82-.997H10.5q-.644 0-1.389.605-.213 0-1.994-.605zm21 2.17v.605h.178q6.014-1.957 10.714-1.957v-.605h-.215q-6.227.782-10.677 1.957m0 3.383v.605h.178q6.977-2.384 10.714-2.386v-.39q-6.513.605-10.892 2.17m0 3.952v.82q5.587-3.171 10.892-3.171v-.603h-.392q-3.989 0-10.5 2.954m-26.766-.179v.392q8.933 3.275 15.448 7.33.214 0 1.992 1.175 0-1.315-3.167-2.564a27.5 27.5 0 0 0-7.332-3.772q-5.839-2.56-6.728-2.56zm26.766 4.556v.997q0 .427.178.784a1.7 1.7 0 0 0-.178.783v.212q5.34-1.992 8.685-1.992h2.205v-.607h-1.386q-3.098 0-8.544 1.387-.392-.64-.392-1.174 6.443-3.382 10.324-3.382v-.392h-.215q-4.27 0-10.499 2.99zm-22.21.997q.995 0 9.717 4.164 3.951 2.315 3.951 3.168-.284.783-.57.783h-.214q-1.031-1.494-8.115-4.556-5.376-1.673-5.376-1.993v-.177q.607-.857.607-1.389m-1.176 2.562q2.173.037 9.113 2.99v.391q0 .536-1.994.997-4.2-1.992-6.94-2.597l-.784-.784v-.607q0-.391.605-.391m23.386 3.382v.784q4.805-3.383 10.892-3.383v-.568h-.605q-4.271 0-10.287 3.167m-22.21-.603q1.602 0 5.161 2.17v.605l-.213 1.39h-.179q-4.948-1.605-4.948-2.776v-.997zm22.21 4.948v.605q3.845-2.491 10.072-3.951.82 0 .82-.427v-.178q-3.17 0-10.716 3.559zm-21.426-1.389q2.278 0 4.982 2.386 0 .282-.605.605-4.377-.997-4.377-2.386zm21.426 5.945v.605q6.087-5.161 9.895-5.161h.997v-.605h-.215q-5.658 0-10.677 5.16m-7.332-3.95q-4.77 6.941-4.77 12.494 0 .142.214 1.174h.392v-.213q0-5.945 4.556-12.458v-.605q0-.392-.392-.392m7.332 9.894v.391h.178a14.4 14.4 0 0 1 3.773-4.734q3.526-3.38 6.941-3.773v-.783q-2.598.641-3.772 1.175-5.447 3.7-6.944 6.94a1.7 1.7 0 0 0-.176.784M0 170.155h.213q.784.284.784.605H.392q-.392 0-.392-.427zm0 1.388h.213q1.568.498 1.568 1.176 0 .995-.784 1.21-.997-.253-.997-.605zm28.546 14.06v.213q0 1.426 1.176 5.127-1.604 1.708-1.604 3.38h-.177q-2.775-3.524-2.775-8.72-.215 0-.215-.605-.39.073-.39.392v2.384q0 3.417 4.377 9.327 3.846 2.775 4.164 2.775 3.062 1.176 4.948 1.176v-.784h-.605q-1.423 0-4.948-1.388v-.392q2.67-.498 3.346-1.602.25 0 2.205.82v-.82q-1.886 0-3.38-2.384-1.385 0-1.387-.392.64-1.175 2.17-1.175 1.21 0 2.6.784v-.784q-1.532-.784-2.99-.784-2.777.82-2.777 2.778v.391h.213q1.744-.213 1.994-.213l.392 1.21q0 1.174-2.599 1.174h-.392q-1.139 0-1.778-1.992-1.176 0-1.176-1.567v-.213q0-1.958 2.776-2.563 1.283-2.387 4.734-2.385 1.46.213 1.602.213v-.605q0-.392-.392-1.994.392-1.779.392-2.562v-.213q-.71 0-.997 2.205v1.78q0 .392-.391.392h-.997q-.213-1.1-.213-1.602 0-2.384 2.598-5.125v-.428h-.213q-1.746 1.068-2.954 4.166l-.213 1.387v1.389q-.25.783-1.78.783-.784-1.778-.784-2.74.925-6.764 3.169-6.764.534-.781 2.775-1.388v-.392h-.213q-5.731 1.14-5.731 5.34-.498.607-.819 2.598 0 1.921.997 3.773-.674 1.567-1.567 1.567-1.385-1.64-1.387-4.556 0-6.479 5.161-9.896l2.954-1.78h.605v-.39q-3.881 0-7.938 5.516-1.564 3.63-1.566 6.158M10.501 173.93q-2.173 6.196-2.173 11.282v.605l.18 2.351h-.18q-1.993-.641-1.993-1.959v-1.602q0-4.27 1.993-6.548 1.034-3.952 1.39-3.95a1.64 1.64 0 0 1 .783-.18m10.89.178a26.1 26.1 0 0 0-2.385 10.892v1.21q0 7.082 5.553 15.839 5.161 5.161 11.284 6.337a11.7 11.7 0 0 0 2.205.213v-.82h-.21q-3.527 0-9.897-3.558-4.7-4.485-5.766-8.117-2.564-4.804-2.564-10.712 0-5.34 2.386-10.288-.25-.996-.605-.996M0 174.319q.284 0 .605.57v.213q0 .285-.605.606zm21.997 8.722v2.775q0 5.59 4.734 13.847 2.882 3.417 6.371 3.988 2.81.96 4.343.96h.605v-.57h-.605q-4.095 0-9.112-3.594-2.241-2.1-3.56-6.337-1.993-3.559-1.993-8.507v-.997q0-2.525.605-4.732a1.57 1.57 0 0 1-.213-.82q-1.175 1.638-1.175 3.987m-16.444-.428.179.426v.57l-.18 2.384q-.996 0-2.598-.995v-.392q.857-1.066 2.599-1.993m16.622 20.823v.213q0 2.952 8.329 6.123a26.2 26.2 0 0 0 6.336.784h1.21v-.784h-2.598q-3.844 0-9.504-2.954a71 71 0 0 1-3.773-3.382m2.599 7.936v.179q1.068 2.241 7.902 4.164 2.278.607 4.77.605h.604v-.818h-1.993q-4.768 0-11.283-4.128m.997 3.17v.176q0 1.032 2.35 1.604h1.209v-.215q-.32 0-3.56-1.568M64.976 142h1.352q9.86 0 15.52 10.464a15.1 15.1 0 0 1 1.567 6.798v40.188q0 10.68-11.071 16.302-3.844 1.352-6.976 1.352-11.176 0-16.907-12.03-.962-3.238-.962-9.327v-32.603q0-10.574 3.881-14.168Q56.825 142 64.975 142m-.213.784q7.475 6.444 10.679 11.426 1.744 3.024 1.744 3.523 0 .284-.784.96-.854 0-1.922-2.704-3.736-5.73-7.76-9.539-.356-.535-4.093-3.488h-.569q9.185 8.292 10.856 12.03 2.351 3.167 2.35 4.877l-.393.178h-1.567q-3.451-4.665-4.27-6.797-3.061-4.345-9.504-9.506-.391.213-.568.213v.36q1.53.639 5.624 4.661 6.87 7.973 6.976 9.717.39 0 .39.962v.214q0 .392-.569.392v.568h2.492q2.314 0 8.756 2.92v-.605q-.605 0-.96-.784.603-.355.96-.355v-.784l-2.136.96a22.6 22.6 0 0 1-4.483-1.744v-.176q3.807-3.381 6.228-3.702v-.392l-3.88 1.566h-.214v-.213q1.068-1.531 3.31-3.88v-.179q-.39-.638-.39-.997h-.179q-.142 1.744-1.175 1.744-.71-.073-3.88-5.23-4.839-5.63-6.406-5.806 8.01 7.688 9.504 12.03v.178q-.465.82-1.354 1.176-2.845-5.234-9.717-11.853a31 31 0 0 0-2.315-1.923zm-10.286 4.056q3.985 2.597 7.581 7.368.392-.178.569-.178-2.597-3.7-7.545-7.581h-.215q-.39.072-.39.391m-1.531 1.353-.213.391v.214q1.28 0 7.758 6.797l.215-.39q-6.55-7.012-7.76-7.012m26.195 1.388v.179l.392.213v-.213zm.392.57v.18l.392.213v-.214zm-28.331.178-.213.391q2.775 1.387 8.15 7.013l.213-.392q-4.376-5.232-6.227-5.626a5.3 5.3 0 0 0-1.921-1.388m28.723.392q.286.783.57.783-.284-.783-.57-.783m-30.289 2.527q4.948 3.025 9.112 7.581h.214v-.391q-4.345-4.948-7.582-6.798-.392 0-1.354-.784-.392.073-.392.392m10.073 6.016v39.581q0 4.237 4.483 5.446h1.746q4.662-1.209 4.662-4.662v-39.971q0-4.912-5.624-5.448-3.31 0-4.875 3.525-.392.71-.392 1.53zm-10.856-3.488v.57q8.933 5.017 8.933 7.795-.782.96-1.744.96-2.1-3.595-7.581-5.837v.392q3.63 1.281 7.01 5.624v.392q-1.065 1.352-2.133 1.352h-.392q-1.957-4.84-3.703-4.84 0-.392-.784-.392v.568q3.703 2.315 3.703 5.267l.392.179h1.923q1.066 0 2.526 2.136 1.673-.39 1.957-.39v-.57h-1.566l-1.922-1.958q2.278-2.315 3.49-2.528v-.96q-.392 0-4.095-4.059-2.56-1.886-6.014-3.701m22.529 9.717v.57l1.354-.178h.96q3.915 0 8.934 2.491v-.747q-5.23-2.351-7.974-2.351h-.96zm-22.921.96v.392q0 .64.213.96l-.213 1.176v.392q.392 0 .392.177l.39-.177h.392q1.354 0 1.354 1.139-2.528.926-2.528 2.74v.39l.605.785q0 .426-.213.747 3.094 3.736 3.096 9.895v2.35q0 1.744-.57 4.448h-.569v-.784q0-1.102-.784-2.312 0-.177.392-3.31 0-5.624-1.957-7.155v1.14q1.175 2.064 1.174 5.623 0 3.31-1.174 3.31v.784q1.567 0 1.567 2.314l-.393 1.352h.962q.284 0 .96.995 0 2.388-1.744 3.098 1.957 2.242 1.957 4.449-.391.782-.391 1.175 0 1.458 4.271 2.918 0 .784 4.84.784h.216l3.488-.997v-.179q-1.352 0-1.352-.391-1.354.783-2.741.783l-.179-.392.96-1.567q0-.388-.39-.39h-.178q0 .498-1.744 2.351-.642 0-1.567-.57.534-1.32 2.35-3.704-.214-.355-.214-.96-2.918 4.45-3.31 4.449h-.355q-1.283-.498-1.389-.96 4.235-6.656 4.877-12.246v-.568h-.213q-2.528 9.112-4.843 11.46-.96.748-1.173.748l-.179-.355v-.215q0-2.242 3.275-7.19 1.175-2.739 2.136-10.072l.997-.214v-1.922h-.213q0 1.173-.963 1.173-1.352-.6-1.352-1.744 0-2.383 2.528-4.093v-1.565h-.213q-.394.213-.57.213-1.176-2.883-1.175-4.272h.214q.995 0 1.53 1.354h.214v-.962q-1.318-1.744-3.135-1.744h-.177q-2.028 0-3.88 2.706 0 .429-.213.784l.213 1.174-.39.176h-.57q-.248 0-.997-.96v-.605l.605-.747v-.392q-1.175 0-1.173-.605 0-1.744 2.917-1.923v-.213q0-1.21-2.526-2.704 0-.926-1.175-1.745m22.92 2.315v.392h3.275q2.636 0 7.974 2.136v-.392q-3.56-2.315-9.503-2.315-1.07.179-1.744.179m0 2.526v.605h2.315q4.45 0 8.72 3.098h.213v-.394q-3.949-3.31-9.502-3.31zm-16.123.997h.57q1.568 3.628 1.568 6.192v.179q-1.746 2.67-1.746 3.31-.534 0-.96-4.841-.213 0-.997-2.918h-.57v.214q1.567 5.018 1.567 9.68 0 4.627-1.957 10.288h-.392l-.392-1.352q.784-3.204.784-4.095v-1.921q0-5.057-1.355-9.717l1.176-.963-.392-1.173q1.066-2.883 3.098-2.883zm16.123 2.706v.57h.179q4.627 0 11.07 3.097v-.748q-6.37-2.919-11.249-2.919m0 3.878v.57h1.354q4.413 0 9.896 3.131v-.783q-5.59-2.916-11.25-2.918m0 2.92v.783q.143 0 1.141-.213l.995.213a2.83 2.83 0 0 1-1.173 1.352h-.392l-.569-.391v2.314h.39q1.923-3.275 5.413-3.275 3.202 0 4.483 3.88v.356q0 1.85-3.133 2.917 0 1.673-1.92 3.882-.608 2.205-.606 3.486 0 5.84 5.659 8.152v-.173q0-.18.179-.57-.57 0-.57-.392.82-.64 1.138-1.958h-.177q0 .605-2.136 1.353-.962-.32-.962-1.14.678-.107 1.923-1.744 1.567-1.066 1.567-1.388v-.569q-2.278 1.495-3.703 3.098-.392 0-.392.212-.96-.392-.96-1.568a30 30 0 0 1 5.053-3.663v-.783h-.213l-5.232 3.488q-.142-1.567-.392-1.567 0-2.668 2.528-3.665l3.31-2.528v-.392l-1.174.57q-1.531-.82-1.531-1.922.605-.392 1.139-.392c.534 0 .878.32 1.567.96v-.568q0-.25-.962-.997.96-2.278.96-2.704v-.57q-2.88-3.883-5.23-3.88h-.607q-.995 0-1.744.178a11 11 0 0 0-1.923-.179zm-15.91 1.53q.606.392 1.747 2.136v1.174q0 5.055-4.485 12.815-.321 0-.963-1.352 2.849-5.697 3.098-9.327.602-2.774.604-5.446m23.67 7.76h.391q.962.604.962 1.389l-.392.177h-.178q-.498 0-.784-1.566m-.782 1.387h.392q.392.037.392.356v.605h-.392q-.392 0-.392-.39zm-.57 1.354.179.392-.392.177H77.4v-.177q.036-.392.39-.392m-13.81 21.924a13.5 13.5 0 0 0-2.134-.211h-.748v-.392q5.765-4.699 9.113-9.291v-.213h-.215q-8.579 9.325-10.286 9.325v.392q2.99.784 4.483.784h2.138q4.592 0 5.23-1.744 4.166-3.988 4.665-6.23h-.215q-3.025 4.626-6.976 7.369h-2.314v-.392q6.55-6.16 7.76-9.683h-.214l-4.84 6.195q-4.057 4.093-5.447 4.093m-11.427-5.622v.178q.038.39.394.39.747-1.175.747-1.565a1.95 1.95 0 0 0-1.14.997m26.377-.784q0 .32-.96 1.352h.178l.997-1.173v-.18zm-21.924 4.664q.39.034.39.391a15.5 15.5 0 0 0 5.232-4.663h-.392q-2.134 2.136-5.23 4.272m-2.314-1.568.568.392q2.92-2.42 2.92-2.704-.213 0-.213-.214-2.03 1.28-3.275 2.526m37.35-70.227h34.668q.82.25.82 1.78v9.113q0 1.53-.82 1.779h-10.893v60.438q0 1.78-1.386 1.78h-10.68q-.32 0-.605-.604v-61.616H92.041q-.783-.356-.783-1.387V143.6q0-1.102.783-1.387zm.82.784q5.194 4.913 7.722 8.933 1.389 1.458 1.389 2.173h.783q-2.028-4.414-9.112-11.106zm3.736 0v.213q2.92 1.567 6.337 6.55 2.1 2.17 3.985 7.723v.392q0 .498-1.602.784-.391 0-1.173-2.173h-.215v1.176q.217 1.352.605 1.389l-.213.39v.215q.391 0 .391.176 3.594-1.957 3.988-1.957 4.91-1.602 6.121-1.602v-.783q-.073 0-2.562.178v-.177q1.815-3.666 8.115-7.938a23.7 23.7 0 0 1 6.158-3.56v-.996h-.783q0 1.21-1.816 1.21-.676-1.21-.96-1.21h-.605q.784 1.46.784 1.602 0 .641-1.78 1.173-1.495-2.631-1.995-2.775h-.391q1.386 2.528 1.78 2.989 0 .57-1.567 1.567h-.213q-2.707-4.556-2.955-4.556h-.391q1.068 1.602 2.562 4.948-.213.82-1.992 1.815-1.07-3.63-4.166-6.761h-.96v.211q2.205.642 4.556 7.12-.108-.001-1.21 1.21h-.57q-.748-3.417-5.552-8.543h-.997q5.943 6.16 5.943 9.717-.39.891-.784.997h-.21q-.5 0-1.605-2.989-1.066-2.422-6.724-7.725h-.784q8.115 7.654 8.115 12.28-.286.82-.605.82-2.101-5.056-7.902-11.711l-1.604-1.39h-.781q9.327 9.933 9.325 13.67-.642.497-1.779.82-3.595-8.224-6.16-10.112-1.35-1.955-3.949-4.377zm-4.343 2.775v.784a215 215 0 0 1 5.945 7.332l.392.213h.605q0-.498-6.942-8.329m0 2.386v1.175l3.773 4.77h.783q-1.993-3.632-4.556-5.945m27.942 5.945h.783q3.667-2.67 5.553-3.38v-.784q-2.172.889-6.336 4.164m-27.942-2.173v.784q0 1.032.784 1.387h.605v-.213q-1.033-1.531-1.21-1.958zm31.68 2.173h1.21q1.388-.747 1.388-.997v-.605q-2.597 1.354-2.599 1.602m-17.227 9.112-2.777-.784v.784q4.7.674 10.892 6.55v-2.6h-1.175q-1.243 0-2.384-1.566 0-.602 3.56-.604v-.783h-.18q-3.309 0-4.947.783-2.028-.997-2.205-1.567v-.213q.71 0 3.985-1.174a33 33 0 0 1 3.168-.215h.178v-.783q-3.737 0-8.115 2.172m-2.777 5.553v.783q6.513 1.85 10.892 7.332v-.784q0-2.349-8.292-6.334-.714-.392-2.6-.997m0 2.775v.392l5.945 3.56a111 111 0 0 1 4.947 4.555v-.783q-4.629-5.194-8.115-6.55-2.207-1.174-2.777-1.174m0 2.954v.605q0 .214 3.772 1.994 4.558 4.2 7.12 7.724v-.997q-4.947-6.907-10.892-9.326m0 3.56v.82q4.237 1.813 8.115 6.94 2.209 3.735 2.207 4.556v.391q-.319.784-1.387.784-2.28-6.41-7.938-9.504-.642-.392-.997-.392v.784q3.809 1.385 6.16 5.16 1.776 2.529 1.778 4.342l-.997.605h-.391q-.143 0-1.176-2.384-3.275-4.911-3.594-4.948a2.37 2.37 0 0 0-1.78-.783v.783q1.494 0 2.385 2.384.605.428.605 1.389v1.175q-2.988.748-2.988 1.174v3.167l.781-.39q.82.853.82 1.602-.322.784-.606.784-.784-.182-.784-.784h-.213v2.384h.213q6.123-5.303 10.68-6.335v-1.817q-1.64-5.445-6.124-8.684-1.28-1.317-4.77-3.203m3.987 11.887h.177q1.389 1.353 1.389 3.168l-.605.428h-.392q-.534-.18-1.567-2.207.749 0 .998-1.389m-2.599 1.602q2.171 1.283 2.171 2.563v.213q0 .428-.96.607-2.206-2.102-2.206-3.17zm-1.388 12.281v.996q5.908-5.517 7.725-5.552v.214q-.57.71-.57 1.387v.783q0 .284.57.605.71 0 1.779-.213.319 0 1.388.784v-.784q0-.642-2.777-.784v-.391q.891-2.99 2.599-2.99l.178-.391v-.784q-7.402 3.31-10.892 7.12m0 1.992v1.176q1.994 2.384 5.16 2.385h1.39q2.812 0 4.342-1.993v-.784q-2.064 1.994-5.34 1.994h-.604q-4.735-.82-4.735-2.778zm.392 5.553q0 .285-.392.784v.784h.215q0-.392.783-1.39v-.178zm3.772 4.948h.607q2.775-2.35 2.775-3.38h-.213q-2.137 1.85-3.169 3.38m-4.164-.213v.213h.783q1.604-1.246 2.206-2.775h-.212q-2.706 2.383-2.777 2.562m8.115 0v.213h.82q1.957-1.494 1.957-1.779v-.82q-2.422 2.388-2.777 2.386m37.07-73.965h15.59q1.318 0 1.958 7.013 11.106 64.674 11.106 66.988 0 .214-.997.96h-12.245q-1.316 0-1.957-7.794-1.176-6.087-1.352-8.756h-8.97q-2.242 16.159-2.741 16.159l-.569.392h-12.281q-.96-.569-.96-1.174 1.352-9.433 12.279-72.826zm.213 1.567v.18h.392v-.18zm-1.174 7.795q10.857-6.548 16.16-7.226v-.569h-.179q-6.478 1.245-15.982 7.19zm-.57 2.528v.783q5.198-3.772 10.322-5.873 2.778-1.14 7.013-1.744-.213-.39-.213-.57-3.346.145-11.498 3.702-.036.248-4.27 2.526-1.354.857-1.354 1.176m1.53 1.529q-1.459-.392-1.743-.392v.605q4.45.428 14.238 8.578 2.916 2.597 3.88 4.059.569 0 3.31 2.74v-.391q0-.676-1.567-2.136-.175-.39-.177-.57 1.175-.57 1.175-.784v-.39q-1.78.57-1.78.783-.427 0-2.136-1.567 0-.64 3.311-1.744v-.605q-1.068 0-3.882 1.352-1.315-.46-1.565-1.352 3.845-1.567 5.267-1.567a1.3 1.3 0 0 1-.212-.747q-5.09 1.53-5.837 1.53h-.392q-1.567-.924-1.567-1.173v-.356q1.318-1.567 7.618-1.567-.213-.605-.392-.605-5.23 0-8.186 1.567-2.351-.856-2.351-1.744 2.103-1.673 7.404-2.35h.215q1.209 1.388 2.315 1.388.388-.213.603-.213l-.213-.96q-.605.391-1.176.391l-.355-.607v-.783q0-.283.96-2.526v-.569q-2.633 0-13.453 4.093l-1.744-.783v-.214q1.602-1.744 9.93-4.663 4.662-.71 4.662-1.174v-.392q-5.445.997-8.15 2.171-3.061 1.53-8.01 3.667m14.416-1.53h1.174q0 2.315-3.096 2.315-1.958.39-6.621 2.134-1.566-.674-1.566-.96 0-.534 4.664-1.958.89-.856 5.445-1.53m-16.941 6.014q0 .641-.179.997 3.596 0 9.539 3.88h.179v-.392q-2.597-2.883-8.544-4.272-.64 0-.995-.213m-.57 3.311v.605q1.815.534 8.756 3.701l.784.179.177-.392q-8.47-4.093-9.717-4.093m11.497 1.957q0 1.281 2.315 2.741 2.1 2.278 9.93 8.934v-.784q-11.536-10.89-12.247-10.89zm-11.89.784v.784q2.388 0 9.363 4.27h.178v-.39q-1.104-1.604-9.362-4.664zm12.459 2.704v.605q6.05 6.087 12.066 10.714h.213v-.213q0-1.175-3.522-3.311a180 180 0 0 1-8.757-7.795m-13.027.214v.783q2.918.534 9.717 4.662v-.96q-6.194-3.417-9.717-4.485m11.675 2.135-2.351 15.983h4.665q-2.136-15.235-2.136-15.983zm-12.067.214q0 .57-.213 1.352 2.384 1.744 5.446 11.284-1.174.96-2.136.96l-3.88-6.975h-.392v.96q3.488 5.624 3.488 7.013v.391q0 .392-.39.392-.465 0-1.744-3.311-1.567-2.526-1.744-2.528 0 .429-.215.747 2.35 4.238 2.35 5.27-.178.606-1.175.604h-.178q-.214 0-1.174-2.952-.392 0-.392.603 0 .392.392 2.706-.5.39-.962.39v.784q2.456-.96 4.272-.96l-.214 1.957q.214 1.139.605 1.139l2.136-.747q2.92.71 2.92 2.135l-.392.177q-2.92-.392-4.093-.392-2.708 0-6.23 2.136l-.178.997q1.247-.392 1.744-.392h1.174q1.104.642 1.567 1.354v.997q-.605.711-.605 1.353 1.352.568 1.352 1.744v.391q0 .285-.568.569 0 .534.96.997 0-1.852 5.837-4.698.997-1.354.997-3.667-1.458-4.483-4.485-4.483-1.068.175-1.744.177l-.213-.392v-.179q0-2.314 3.701-4.306h.997q.96 0 1.923.605v-.784q-.037-.284-2.136-1.173a2.73 2.73 0 0 1-.784-1.958v-.392h.214q.962 0 2.92 1.568h.176v-.394q-1.458-1.494-4.483-2.918l-.747-2.92q.426 0 3.664 2.352l1.958 1.173v-.605q0-.142-7.011-4.842-1.176-1.385-1.354-2.168.18 0 .178-.18 3.773 1.21 8.578 4.484v-.605q-5.16-3.986-9.717-4.84m13.99 1.744v.57q2.454 2.242 8.577 7.011v.392q-1.352.392-2.136.392-.497-.82-2.917-2.136 0-.213-2.92-2.528v.962q4.735 3.488 4.877 3.488v.214q0 .568-2.172 1.173h-.356q0-.463-1.78-2.349v-.177h-.177v.177q0 .356 1.174 3.135-.605-.002-.605.39v.568h.213q4.842-2.56 10.109-2.917v-.57l-.177-.39-.997.176h-.392q-1.104 0-10.322-7.581m2.35 16.338q-.64 0-2.92-.784h-1.957l.213.997v1.53q-.603 1.852-.605 2.35.215 1.352.215 1.567a12.8 12.8 0 0 1-1.96 3.878h.998q1.53-2.775 1.922-4.093h.213q.82 0 4.664 4.093.96 0 .96 1.389 1.852 1.602 5.09 8.152 2.136 3.453 2.136 6.05l-.605.96h1.958v-.176q-.533 0-.96-2.92a44.8 44.8 0 0 0-9.933-15.767q-3.7-2.918-3.7-3.133 0-.674.569-2.351a1.5 1.5 0 0 1-.179-.569l.179-1.744q8.294 3.454 14.024 13.81 2.919 6.906 2.919 12.674h-.962v.177h2.92v-.177q-.998 0-.998-.392v-.213h.997q0-.605-1.175-1.744l.57-.392q0 .213.214.213v-.605q0-.284-1.174-.57l-.179-1.353q.963-.213.96-.391 0-.321-1.173-.997-.57-.711-.57-1.744v-.177l.178-.392.392.179h.569v-.392q0-.177-1.744-.962l-1.174-3.523.392-.179h.213q.82 0 1.567.392v-.392q0-.638-2.92-.783l-1.175-1.566q0-.82 2.92-.96.392.176.568.176v-.568h-1.744l-2.349.178q-1.352-1.354-1.352-2.135v-.57a15.3 15.3 0 0 1 4.272-.606q.39.213.605.213v-.391q0-.39-.392-.39h-.213q-3.098 0-4.842.783-1.032-.392-1.78-1.567 0-1.352 4.094-1.352h.392q.213 0 .213-.214l.392.214h1.53v-.605l-.961-.179h-.177q-3.846 0-6.23 1.352-.89-.39-.996-.783v-.569q1.352-1.352 6.442-2.136.465 0 1.53-.213v-.179q0-.39-.356-.39-3.308 0-9.183 2.526-.748-.284-.748-.568v-.392q0-.465 1.744-.784 0-.995 5.838-2.349.925-.392 2.35-.392-.214-.392-.214-.568-3.346 0-8.97 2.704-.82 0-1.353.784m.96-2.136.392.213v-.605q-.392.037-.392.392m-13.81 5.66q4.093.321 4.093 1.176v.96q0 2.668-4.484 3.88-.393.784-1.175.784-.962-1.318-.962-1.96 0-.141.178-1.138 0-.711-2.136-2.526 0-.857 4.484-1.176m-8.187 6.62-.178.391q1.352.82 1.352 2.528v.178q0 1.568-2.315 2.74v.962q2.92-1.64 2.92-3.312v-1.173q0-2.315-1.779-2.315m8.008 7.76q.57 2.563 1.352 2.563v-.39l-.605-2.351q0-2.242 1.96-5.446v-.392q-2.707 2.883-2.707 6.016m-10.714 7.797q4.664-4.167 6.23-6.621v-.392h-.214q-4.093 4.483-5.837 6.05zm1.567.213v.177h1.921q0-.321 2.351-2.705.784-.853.784-1.567h-.215q-3.736 4.095-4.84 4.095m4.84.177h1.388q0-1.6 2.918-2.135h.747l.215-.962h-.215q-2.312 0-5.053 3.098m40.344-73.323h17.441q8.791 0 13.242 4.343 4.982 4.77 4.982 13.276v11.71q0 7.26-5.766 13.062l8.115 31.893-.783.605h-12.065q-.856 0-2.99-10.501-.997-3.167-4.166-17.049H195.9V216.5q0 .32-.605.605h-11.283q-.32 0-.605-.605v-73.68q0-.323.605-.606zm.392 1.602q0-.213-.215-.213v.997h.215q5.161-1.389 8.115-1.389v-.213h-4.556q-3.203.82-3.559.818m-.215 6.337v.568q9.256-2.952 13.668-2.952h1.389q5.553 0 16.657 4.556.036.14 1.994 1.174v-.392q0-1.673-13.705-5.161-3.238-.784-4.128-.784-7.01 0-15.873 2.99zm0 2.954v.783q5.837-2.777 13.492-2.777 10.533 0 19.612 4.77.392 0 1.387.606 0-1.387-3.772-2.387-7.44-3.558-15.839-3.558h-1.994q-5.804 0-12.884 2.563zm0 3.772v.392h.215q7.26-3.167 12.28-3.167 7.26 0 9.325.995 8.507 2.032 12.671 4.734h.179v-.392q-2.564-2.312-10.288-4.34-7.366-1.783-10.322-1.781h-.392q-5.124 0-11.674 2.562-1.994.607-1.994.997m11.711-1.779v21.782h6.513q4.985-.926 4.985-5.553v-10.893q0-5.34-5.161-5.34zm-11.71 4.946v.784q4.165-1.959 6.549-1.959h.605q0 2.564-1.779 2.564-3.881 1.566-5.376 1.994v.96q4.664 3.275 10.893 8.934v-.784q-1.568-1.21-1.568-2.205l1.568-.392v-.783h-.179q-2.17.783-2.599.783 0-.11-1.173-1.388 0-.64 3.95-1.781v-.569l-5.339 1.568q-1.174-.676-1.174-.999v-.39q4.84-2.564 6.514-2.564v-.605h-.179q-1.673 0-6.55 2.385 0 .392-.995.392h-.178q-1.994-1.175-1.994-1.994h.213q3.415-2.172 6.729-2.172h1.173q.997 0 1.78-.995v-.57q-1.457.96-2.172.96-.889-.39-.995-.784 0-2.132 3.168-4.34v-.427h-.179q-.248 0-3.559 2.384a36.5 36.5 0 0 0-7.155 1.993m23.6-2.383v.211q0 .784 1.566.997v.179q0 1.388-1.175 1.386v.606q.036.393.391.391 1.14 0 2.386-2.383.641-.392 1.174-.392 1.995.392 1.993 1.994v.391q0 .64-1.21 2.169 1.389 3.029 1.389 3.382v.57q0 .322-.57.606h-.427q-.142 0-1.175-2.17a8.7 8.7 0 0 0-3.951-1.781v.997q3.95.71 3.95 2.954v.392q0 .392-.39.392h-.215q-1.315-.248-3.344-1.39v2.206l.995-.211q2.457 0 3.346 1.173h.784v-.96l-.179-.428.605-.39h.57q1.745 0 1.995 2.596v.57l-.214.998.819.605h.996l.96-.213v-1.568q-2.064-1.744-2.775-3.167-.962-.357-.962-1.21l.392-.179h.179q2.598 1.958 3.167 1.958v-.784q-4.735-2.632-4.735-4.341l.392-.213 4.343 2.383v-.996q-.248 0-4.343-2.17v-.214q.179-1.318.605-1.389l3.738 1.389v-.784q-4.556-1.64-4.556-2.952a4.7 4.7 0 0 0-1.78-.999l-1.958.57zm-23.6 11.282v.82q1.354.569 8.935 7.724 5.838 5.55 11.496 5.55h.784q4.022 0 7.51-3.771l.213-.997v-.214h-.213q-3.488 4.165-7.331 4.165h-.963q-.213 0-.213.213-6.23 0-16.657-10.89l-3.346-2.6zm24.384 1.815q0 .285-.392.784v1.174l.997-.784h.392q1.175.891 1.174 2.564-.89 0-3.168-.392l-.178.392v.392h.57q.603 0 2.384.605v.392l-.213.995q-2.812-.39-3.951-.39-.356 0-1.568.605v.177l1.389-.177h.392q.248 0 2.172.39h.39v.392q0 .783-2.952 1.175-2.101 0-3.383-1.388-.71.213-1.993.213v.178q3.524 1.816 5.376 1.816 4.091 0 5.338-4.165 0-1.388.178-1.388-.641-3.56-2.954-3.56m8.897.784q.32 0 .605.57 0 .427-.392.427h-.213q-.393 0-.392-.428v-.177q.07-.392.392-.392m-33.28.997v.569q12.778 11.39 15.448 11.71V185l-.96.213h-.216q-5.34 0-14.058-8.328h-.215v.605a56.5 56.5 0 0 0 9.932 7.723v.179l-2.777.605q-1.208 0-7.155-5.553v.82q1.996 2.276 4.948 4.341l.605.784q0 .497-2.384.818 0-.747-3.169-3.596v.82q2.388 2.668 2.386 2.953-.498.997-1.568.997 0-.285-.818-.784v2.35q6.692-3.952 14.06-3.95h1.604q7.08 0 14.45 4.164h.213q-.213-1.033-1.602-2.385-.178-.392-.178-.569.393-1.996.391-2.599-1.244.89-4.377 1.78 0 .214-.179.214-4.056-1.212-6.158-1.389V185l.392-.57v-.214q-4.447 0-7.297-2.562-.355 0-8.933-7.545-.248 0-2.386-1.567m33.886 3.346q-.605 1.995-1.993 4.556h.213q.998-1.637 1.993-4.343v-.213zm-6.334 10.5.213.393v.82q0 .388-.429.39-1.137-.784-1.386-.784 0-.463 1.602-.818m-8.329 5.943q.142.783.39.783 5.518 0 12.885 5.553 0-1.53-2.776-2.564-5.194-3.772-10.499-3.772m-19.223.391v.82q4.556 1.067 10.716 6.904h.177v-1.174l-2.173-1.388q.073-.64 2.173-1.994v-.392a6.4 6.4 0 0 0-2.778 1.389h-.39q-1.139-.64-1.567-1.389v-.177q.891-1.139 4.735-1.78v-.605q-1.389 0-5.945 1.78zm20.218 2.991v.784q3.38 0 10.5 3.95l2.776 2.206q0-3.166-11.889-6.761zm-20.218 2.17v.606q5.127 1.494 9.932 5.944.711 1.174.96 1.174v-.784q-2.42-2.81-4.947-4.377-4.912-2.562-5.945-2.562m21.002 1.78q0 1.032 3.167 1.602 2.883.924 9.112 5.34l1.389.781v-.178q-.252-.853-7.334-5.374-1.922-.782-6.334-2.17m-21.002.996v.605q5.161 1.21 10.893 8.115v-.783q-4.806-6.193-10.893-7.937m0 2.775v.784q2.885.603 6.337 3.56 1.567 1.743 4.556 5.942v-1.387q-3.239-6.192-10.893-8.899m21.997.214q0 .96 2.777 1.567a155 155 0 0 1 11.283 7.545v-.215q0-1.034-4.946-4.164-6.195-3.81-8.507-4.735zM184.19 206v.604q4.912 2.92 6.337 5.945 2.775 3.772 2.988 3.772h.607v-.213q-3.382-4.985-5.944-7.724A19.5 19.5 0 0 0 184.19 206zm22.78.819v.177q0 .96 2.778 1.78 3.882 2.1 10.322 7.545h.997v-.213q-.605-.177-7.155-5.553a69 69 0 0 0-6.94-3.736m-22.78 3.344v.784q1.033 0 5.945 5.376h.605q-5.02-6.16-6.55-6.16m23.779.215v.569a148 148 0 0 1 7.937 5.376h.783q-3.524-3.171-8.72-5.945m-23.779 3.167v.784q.25 0 2.599 1.992h.57q0-.32-2.954-2.776zm24.56.605v.177q0 1.105 2.99 1.994h.391q-.641-.71-3.38-2.17m19.877-71.726h10.964q.783.285.783 1.353v55.92q0 3.63 4.875 4.699h1.176q4.911-.784 4.911-6.05v-55.351q0-.284.57-.57h11.746q.284 0 .569.57v54.957q0 13.739-12.706 18.366-2.636.784-5.482.784-11.177 0-16.801-11.354-1.176-3.17-1.176-7.228v-55.527q0-.284.57-.569m26.98.784v.179q1.532.107 7.832 3.914v-.392l-1.568-1.567q1.032-.424 1.568-1.742v-.392h-.392l-2.136 1.744q-.465 0-1.957-.783v-.392l.39-.569h-.213q-.784 0-1.568.179a6.4 6.4 0 0 0-1.565-.179zm-26.769 2.35v.568q4.877-1.35 7.831-1.352h2.741v-.605h-2.954q-3.275 0-7.618 1.388m23.28 1.176v.57q2.278 0 11.317 6.264v-.784q-7.082-4.875-8.22-4.875 0-.357-3.099-1.175m-23.28 1.744v.392h.18q6.762-1.176 10.392-1.176v-.568h-1.388q-2.99 0-9.184 1.352m23.28.997v.391q.036.285 4.875 2.136l6.266 3.915h.178v-.784q-6.3-3.95-11.319-5.658m-23.278 2.134v.783q8.757-1.959 10.359-1.959h.213v-.39h-.997q-1.886 0-9.575 1.566m0 3.311v.605h.392q.25 0 2.136-.392h1.174q0 2.351-3.131 2.351-.394.177-.57.177v.605q1.743-.392 2.527-.392h.213q1.21 1.352 2.351 1.352.425 0 1.742-1.567 1.425-.177 1.568-.177 1.707.179 2.17.179v-1.957h-1.78q-1.815 0-3.131 2.349l-1.354.392-.39-.57v-.784q-.002-1.958 2.74-2.918.248-.784 1.745-.997h2.17v-.569q-.178 0-1.567-.215-.532 0-5.693 1.96zm23.28-1.923v.569q1.21 0 11.317 5.482v-.605q-2.1-1.992-11.317-5.446m0 3.097v.783l.39.605v.569l-.39.605v1.354q2.526 0 9.36 2.952v.392q0 .536-1.957.962-4.128-1.959-6.835-2.527 0-.214-.568-.392v.784q2.278 7.617 3.31 7.617 0 .179.783.569 5.48 0 5.48-3.098v-.39l-.213-.392-1.352.179h-.214q-.391 0-.391-.392v-.392q0-.89 3.132-1.567h.784v-.96a56 56 0 0 0-10.359-4.129v-.391q.569-.82.569-1.353 1.246 0 9.79 4.307v-.392q-1.853-1.708-11.32-5.303m-14.488.391h1.567v.392h-1.957q.07-.392.391-.392m-8.79 4.522v.57q6.05-.783 10.358-.783 0 .213.213.213v-.784h-.213q-6.05 0-10.359.784m.392 3.13h-.392v.784q3.953 3.665 4.485 4.662.498 0 5.695 4.913l.392.177v-1.352l-.392.179q-.568 0-1.957-1.744 1.387-.997 2.35-.997v-.784q-2.173.642-2.742 1.175-1.779-.962-1.779-1.959.638-.568 4.52-1.352v-.568q-2.028 0-5.09 1.53-.463 0-2.17-1.53.923-1.568 7.26-2.565v-.568q-2.741 0-7.831 2.136-1.316-.498-1.567-1.353 4.629-1.959 8.224-1.959h.177l.997.179v-.96q-.213 0-.213.176l-.96-.176q-1.71 0-9.007 1.957m24.419-1.387q1.567 0 5.09 2.17v.57l-.18 1.39h-.212q-4.877-1.568-4.877-2.741v-.997zm.783 3.523q2.278 0 4.912 2.35 0 .283-.605.57-4.307-.963-4.307-2.315zm-25.594 3.132v.392q0 1.068 3.525 3.702 5.374 5.23 7.047 5.873v-.962q-.642 0-10.57-9.003zm27.943 4.094.213.996q0 3.204-4.876 7.795v.997l2.136-1.389.178.392v.605l-.178 2.35q-1.14 0-2.136-.783v.96q3.559 1.14 11.317 9.789v-.997q-2.74-3.701-2.74-10.749 0-4.627 2.742-11.142v-2.918q-5.517 3.56-6.656 3.702zm6.477-2.528v.178q-3.134 6.55-3.134 11.746v2.528q0 2.739.783 5.48h-.39q-2.954-2.278-2.954-6.834 0-5.517 3.344-11.924 1.354-1.176 2.351-1.174m-34.42 1.746v.213q0 1.175 4.093 4.093 2.067 2.063 5.303 4.308v.39l-.995.179h-.391q-1.176 0-7.831-5.659h-.179v.784q.82.497 5.66 4.483.606 0 .606.392v.392q-1.39.392-2.173.392 0-.392-3.914-2.92 0-.177-.179-.177v.747l3.135 2.171v.179q0 .605-2.173 1.173h-.391q0-.783-.57-.783v2.172h.178q5.303-2.562 10.18-2.562h.213v-1.744q-3.63-1.852-10.57-8.223zm30.292.605q-2.137 6.087-2.136 11.14v.57l.177 2.35H257q-1.957-.642-1.957-1.958v-1.567q0-4.199 1.957-6.442 1.032-3.915 1.353-3.915a1.7 1.7 0 0 1 .783-.178m-7.012 4.093v.997h.176q.96-1.886 1.745-3.917a1.7 1.7 0 0 1-.177-.783h-.215q-.569.322-1.531 3.703m11.14 5.09q-.215 3.238-.215 4.877 0 .782.215 3.523h.177v-8.4zm-34.42 8.791v.605q9.72 8.152 11.354 14.842 1.923 5.09 1.923 9.185 3.24.39 3.916.39 0-.426-2.74-1.352-.393-.498-.393-.605.392 0 .392-.392.498 0 5.695 2.172.392 0 .392-.391-3.025-1.921-6.87-2.741l-.177-1.389.39-.177q5.518 1.032 9.006 3.915h.179q.39 0 .39-.392-4.948-3.736-7.831-3.736-2.74-.678-2.74-1.746-.18-.355-.178-.995v-.179l.179-.391q6.334 1.352 10.785 4.876 0 .248 1.92 1.568l.392-.57q-5.589-4.843-13.276-6.658-.749-.213-1.744-3.915.284-.178 1.139-.178 0-.461-2.136-.997l-.96-1.352q.178-.784 1.173-.784h.57v-.213q0-.39-.57-.39l-1.778.213q-1.354-1.389-1.354-2.172v-.569q2.385-.605 3.524-.605v-.57q-2.989.178-4.13.783-1.03-.391-1.744-1.567.002-1.385 4.094-1.387h.391q.215 0 .215-.178l.39.178h.784v-.783h-.392q-3.881 0-6.263 1.388-.892-.392-.997-.783v-.605q0-.677 5.303-1.921 2.351-.217 2.351-.607v-.39q-3.348 0-9.221 2.526-.784-.285-.784-.569v-.392q0-.426 1.78-.783 0-.959 5.874-2.35.926-.391 2.351-.391v-.569h-.215q-3.38 0-9.005 2.741-1.354 0-1.354 1.352m.963-2.74.39.213v-.605q-.39.072-.39.391m22.317 1.566v.784q2.134.426 10.927 10.18v.176h.213v-.96q-6.014-7.545-10.963-9.967 0-.213-.177-.213m0 2.92v.783q1.71 0 10.533 10.57 0-.569.216-.569-7.046-8.862-9.967-10.18 0-.284-.784-.605m0 3.738v.784q.96 0 9.575 9.183l.39-.784q-9.005-9.185-9.965-9.183m-23.28 1.957v.784q4.414 4.625 7.226 11.14.784.926 1.568 3.525l.783.39q-1.356-5.194-7.617-13.881zm23.067 1.568q0 .424-.179.782.997.391 8.402 8.007.39 0 .39-.39-7.939-8.151-8.613-8.401m-1.957 3.523v.176q.497 0 8.007 7.226l.392.214.392-.606q-8.292-7.402-8.401-7.402-.39.036-.39.392m-3.704 1.352 4.307 3.31 5.66 4.519q.392-.211.569-.211-6.725-6.337-10.144-7.618zm26.644-62.965h16.054q.887 0 2.17 8.72.392 1.034 7.902 40.4h.214q0-.82 9.112-48.728l.605-.392h15.448q.285 0 .605.605v73.68q0 .322-.605.606h-11.282q-.323 0-.605-.605v-38.442h-.215q-7.119 35.418-8.116 38.835l-.391.214h-9.112q-.924 0-2.17-7.334a1055 1055 0 0 1-7.546-32.284h-.178v39.01q0 .322-.605.606h-11.285q-.32 0-.605-.605v-73.68q0-.321.605-.606m.57.784q5.554 4.663 7.937 8.933 2.491 4.484 2.564 5.945v.179q0 .497-1.567.818-.142 0-3.38-5.945-2.565-4.271-5.945-7.331v.568q1.388 1.602 4.556 5.945 1.602 1.744 3.985 7.155l-.213.392v.176q.392 0 .392.214 4.629-2.563 6.158-2.563 0-.248 3.56-.997a1.57 1.57 0 0 1-.214-.818l-1.389.213h-.568q0-.995 1.567-2.383-.678-4.664-2.777-7.12-2.67-3.381-2.955-3.381h-.996q6.158 6.3 6.158 9.93-.429.891-.82.96h-.177q-.5 0-1.604-2.952-1.066-2.387-6.94-7.938h-.96v.213q1.851.82 6.123 6.337 2.384 3.524 2.384 5.943-.284.783-.605.783-2.17-5.09-7.119-10.68 0-.318-2.598-2.596h-.784q9.504 10.074 9.504 13.881-.642.498-1.78.784-3.56-8.223-6.124-10.109-3.486-4.556-4.767-4.556zm14.487 0q0 .465.997.605v-.213q0-.392-.427-.392zm20.181 4.77v.604q7.443-3.204 12.495-3.204h1.602l1.957.214v-.605l-1.389-.177h-2.349q-4.913 0-12.316 3.167m-.57 3.773q6.371-3.381 16.446-3.381h.176v-.607h-2.17q-6.727.144-14.452 3.17zm-34.49-1.21v.783q5.767 7.509 5.767 9.539.179 0 .179.392-.177.783-1.176.783-.89 0-1.994-4.343a26.4 26.4 0 0 0-2.775-4.164v1.174q2.633 3.7 2.989 6.16v.958h-.39q-1.39 0-1.994-2.952-.392 0-.392-.607h-.213v1.604q.605 1.777.605 1.955-.392.215-.605.215v.784a1.6 1.6 0 0 1 .605-.179q13.242 0 20.786 10.678h.214v-.179q-.392-1.602-.392-2.384h-1.21q0-.284-1.174-1.78v-.213q1.281-.392 1.779-.392v-.392q0-.392-.392-.392h-2.562q-1.247 0-2.386-1.6 0-.57 4.166-.57h.569v-.82h-.784q-4.093 0-5.551.82-2.03-.997-2.172-1.602v-.177q.71 0 3.95-1.212a38 38 0 0 1 3.168-.177h.82v-.428q0-.39-.392-.39-4.058 0-8.328 2.205-1.034 0-3.773-1.387 0-.213.995-1.388 0-.392-.391-.392a1.7 1.7 0 0 1-.784.178q-1.706-4.45-6.761-10.108m33.708 4.77q3.882-2.241 12.066-3.382 2.565-.783 4.343-.783h.605l.392.178v-.568h-1.78q-5.376 0-15.055 3.559-.57.747-.57.997m-.606 3.344h.179q6.692-2.776 8.933-2.776h1.176q0 2.384-3.17 2.384-1.957.392-6.726 2.207-.392-.213-.605-.213l-.179.391q6.834 4.77 11.072 9.326 0 .32 1.991 1.567 3.275 3.521 5.34 4.77v-.392a1.8 1.8 0 0 0-.178-.82 1.64 1.64 0 0 0 .178-.784v-.39l-1.175.605q-.534 0-1.992-1.78 1.85-1.209 3.167-1.21v-.784q-3.346.929-3.559 1.388-1.78-.997-1.78-1.992 3.808-1.567 5.34-1.567v-.605q-2.206 0-5.946 1.78-.426 0-2.17-1.567 0-1.315 7.545-2.597.393.214.57.214v-4.772q-11.567 0-14.06 1.78-2.384-.888-2.384-1.78 2.133-1.673 7.545-2.385h.179q1.246 1.389 2.384 1.389.464 0 1.388-1.176.891-.605 1.78-.605 2.03.213 3.168.213v-1.778l-1.389-.214h-1.173q-1.852 0-3.168 2.384l-1.388.392-.392-.605v-.784q0-1.993 2.776-2.952.25-.82 1.78-.999h1.389q.82 0 1.565.392v-.78q-1.886-.39-2.35-.39-.568 0-5.765 1.957-3.025.214-9.717 2.99-.179.393-.179.57m15.447-1.387h1.567v.426h-1.959q.037-.426.392-.426m1.389 4.377q.783.177.783.997-.284 0-.605.569l-.96-.177q-1.746 0-9.112 1.994h-.428q-1.568-.963-1.568-1.212v-.39q0-1.425 11.89-1.78m-.784 2.171h.179q1.21.11 1.21.606v.178q0 .498-5.553 1.387-.213.215-2.599 1.21-1.316-.497-1.567-1.387 4.702-1.994 8.33-1.994m-17.262.782v.605q6.052 4.45 7.939 6.158h.213v-.605a34.3 34.3 0 0 0-8.152-6.158m-31.892 3.168v.605h1.778q2.351 0 8.936 2.598 4.306 1.852 7.508 5.517l4.771 6.55q.605 1.421.605 1.602h.179v-.214q0-3.203-6.942-10.5-6.478-5.056-15.235-6.337a11 11 0 0 1-1.6.179m31.322.428q0 .428-.214.784 3.49.426 8.329 5.16v-.82q-.355 0-2.989-2.562-2.99-1.851-5.126-2.562m-31.322 2.562v.784h.82q6.37 0 9.894 2.384h.178v-.784q-4.629-2.384-10.892-2.384m30.717.213v.782q2.99 1.422 7.938 5.34h.177v-.392q-3.417-3.275-8.115-5.731m9.504 0v.96q8.436 7.833 10.892 9.112v-.783q-4.343-3.418-10.892-9.29m-40.221 2.742v.82l.392-.215q5.374 0 10.499 2.775v-.39q-3.31-2.99-10.891-2.99m11.71 0q0 1.066 2.171 2.207 6.585 5.481 8.115 9.895 1.604 2.136 1.604 3.56-.215.604-1.212.604h-.178q-.321 0-.995-2.562-3.027-4.806-7.939-9.327l-.392-.213h-.213v.213q0 .286 3.38 3.772 4.949 5.626 4.949 8.51-.82.604-1.568.604-2.739-5.91-5.372-8.328h-.179v.177q0 .678 2.776 4.164 1.567 3.346 1.567 3.772v.392q-.284.82-1.389.82l-1.388-3.204h-.177l.997 4.378q5.693-2.562 8.115-2.562l-.213 1.957q.213 1.21.605 1.21h.39l.392-.213q0-.678-.569-1.568v-.605q0-.213.177-.213-.924-5.053-6.94-12.28-4.2-4.271-6.513-5.16m18.402.428v.57q4.947 2.989 7.544 4.946.037.429.394.429l.213-.429v-.176q-5.766-4.557-8.151-5.34m10.109.177v.996q.643.285 5.766 4.77 2.92 2.35 3.169 2.35v.39l-.997.214h-.392q-1.066 0-7.545-5.34v.179q0 .997 2.384 2.385 1.14 1.209 3.38 2.776v.392q-1.386.392-2.204.392-.039-.427-3.346-2.563 0-.215-.215-.215v.605q2.137 1.996 2.598 1.994v.179q-.854 1.21-2.598 1.21v1.173q6.015-2.562 10.892-2.562v-.82l-5.553-4.128q-1.139-.64-5.34-4.377m-10.501 1.993v.605q.073.215 5.34 3.736 0 .217 2.385 1.996h.213v-.605q-2.241-2.388-7.938-5.732m-29.72 1.176v.605h3.167q3.915 0 7.724 2.954v-.569q-3.81-3.17-8.292-3.169h-1.604zm29.115 1.992v.997q6.194 3.096 7.333 6.123h.427v-1.176q-2.242-2.635-7.76-5.944m-28.297 1.175h-.82v.82l.394-.215h.996q4.875 0 9.503 3.168v-.605q-4.593-3.346-8.898-3.346zm27.728 1.994q0 .11-.392 3.167a1.6 1.6 0 0 1 .179.605q-.498 0-.784 1.568h.215q.179-.57 1.174-.57h.784q3.025 0 5.16 4.342v1.994q-.606 1.886-.604 2.349v.605q.069.392.391.392-.001-.536 1.21-6.514-.64 0-2.385-2.385-1.031-.962-3.951-2.17-.82-.857-.82-1.994v-.392h.215q3.701 1.246 5.553 4.556.392.641.392 1.173h.176q1.39 0 1.39-1.565h-.18l-.39.179q-4.947-4.843-7.333-5.553zm-28.546.782v.605h.213q2.065 0 4.343.783v.214q-.642 1.173-1.389 1.388-1.777-.607-2.349-.605h-.82v2.776q0 1.421.607 1.567 1.352-2.172 2.775-2.172 1.174-2.564 3.56-2.563 2.67 0 3.169 2.384.463 0 .605.962h.177v-1.354q0-2.706-5.943-2.988 0-.642-4.13-.997zm.82 2.99q.958.57 1.35.57v.214q-.07.497-1.352.997l-.605-.784v-.605q0-.392.605-.392m39.4 5.127v.82q1.78-.607 3.773-1.996 2.954-.995 7.12-1.6v-.57q-4.84.286-10.109 2.954-.783 0-.783.392m.392-1.78.391.212v-.605q-.391.073-.391.392m-33.46 3.168q.394.641.394.997 0 .318-1.78 2.598a10.6 10.6 0 0 0-.393 2.741v.818q0 .177-.213.177 1.14 5.91 2.954 7.547 1.994 1.567 2.776 1.567v-.783q-2.953-1.105-2.953-2.955v-.215q0-.213 2.953-2.952v-.82l-3.56 2.989h-.391l-.784-4.163q1.427-1.673 4.737-4.166v-.997q-2.565-1.634-2.565-3.167l.997-.177q.25 0 1.568 1.174v-2.562q-3.738.783-3.738 2.349zm33.851.605-.783-.392v.784q6.336 4.7 9.112 10.108.71.711 1.604 3.773h.176v-1.389q0-.497-.391-1.778.391 0 .391-.392v-.392q-1.388 0-2.349-1.815 0-.784 2.351-.96v-.429h-.57l-2.386.213q-1.388-1.385-1.388-2.168v-.607a15.9 15.9 0 0 1 4.342-.605v-.569q-3.167 0-4.948.784-1.031-.394-1.778-1.604 0-1.387 4.164-1.387h2.562v-.57l-.997-.213h-.176q-3.918 0-6.337 1.388-.89-.393-.997-.783v-.605q1.389-1.39 6.55-2.171 1.71-.215 1.957-.215v-.569q-4.627 0-9.895 2.563zm-14.238-1.387v.783q3.169.642 3.169 2.206l-.392.178q-.355 0-3.169-.392l-.213.392v.213h.213q4.343.288 4.343 1.176v.997q0 2.704-4.556 3.95-.392.82-1.174.819-.997-1.354-.997-1.994 0-.142.177-1.21 0-.674-2.17-2.562 0-.747 3.95-1.176v-.213q0-.392-.568-.392-2.92 0-7.938 2.99v.783h.213q1.815-.995 2.954-.995h1.21q1.14.64 1.567 1.387v.996q-.605.75-.605 1.39 1.389.568 1.387 1.78v.39q0 .286-.569.607 0 .532.96.96 0-1.85 5.946-4.735.996-1.388.996-3.772-1.425-4.343-3.95-4.343 0-.213-.784-.213m-18.046 2.384q.784.854.784 1.567-.286.818-.57.818-.748-.215-1.21-1.389 0-.568.996-.996m-1.567 1.78.57.784v.605q0 .355-1.388 1.173v-1.173q0-1.105.82-1.389m26.946 2.17v.392h.179v-.391zm-.215.606q0 2.135-4.948 4.947-2.562 3.31-2.562 6.158c0 2.849 1.447 3.086 4.343 3.56q.391 0 .391-.214 0-.178.214-.57-4.165 0-4.165-2.989 0-4.7 5.34-7.333 1.6-1.567 1.6-3.38v-.18zm6.337 1.567v.818q3.526 3.809 6.728 10.68 1.602 2.418 1.602 4.377h.783v-.215q0-1.923-5.944-12.064-2.92-3.596-3.17-3.596m-21.783 1.387v.213q.997 2.278.997 2.956v.605q0 .213-.213.213.213.32.213.997.569-.213.57-1.21v-1.175q0-1.958-1.567-2.6m-18.437 5.377v.782q.211 0 1.602-2.173v-.391q-1.14.82-1.604 1.78m5.945 2.169q0 .393-5.945 6.728v.213h.605q5.73-5.695 5.73-6.76zm-5.945 2.387v.784q.319 0 2.384-2.388v-.603h-.214q-.213 0-2.17 2.205m20.608 0q.213.392.213.569.252 0 .997-1.176v-.39h-.213q-.248 0-.997.997m-12.28-.215q0 .536-3.95 4.77h.996q2.528-2.632 3.56-4.557v-.213zm-.391 4.77h.996q1.426-1.103 1.958-2.597h-.177q-2.741 2.383-2.777 2.597m13.455-1.78v.784q.82-.357.82-1.388h-.215q-.285 0-.605.605m2.775 1.567v.212q2.351-.214 3.382-.214h1.568l1.385.214.215-.819h-.213q-.321 0-3.168-.392-.89 0-3.169.997" fill="#e23e57"/>
</svg>
