<svg width="220.473" height="328.016" viewBox="0 0 234.807 349.342" class="looka-1j8o68f">
  <g fill="#280b45">
    <path xmlns="http://www.w3.org/2000/svg" d="M69.153 195.286c-14.82 0-26.763-11.877-27.795-27.619-3.512-53.898 13.173-93.373 23.25-116.974C69 40.44 72.402 32.34 72.095 27.97c-.966-14.095-9.309-22.503-22.306-22.503a17.32 17.32 0 0 0-17.3 17.3A13.304 13.304 0 0 0 45.77 36.05a10.1 10.1 0 0 0 10.055-9.419H37.385v-2.7a10.977 10.977 0 0 1 10.977-10.978A13.02 13.02 0 0 1 61.359 25.95a15.59 15.59 0 0 1-15.566 15.566A18.793 18.793 0 0 1 27 22.79 22.81 22.81 0 0 1 49.79 0c15.72 0 26.63 10.846 27.794 27.597.396 5.686-3.095 13.897-7.903 25.248-10.45 24.633-26.346 61.868-22.833 114.471.834 12.887 10.385 22.482 22.306 22.482A17.32 17.32 0 0 0 86.387 174.1h-5.181a10.98 10.98 0 0 1-10.604 8.299 13.02 13.02 0 0 1-12.997-13.173A15.59 15.59 0 0 1 73.17 153.66a18.793 18.793 0 0 1 18.77 18.772 22.81 22.81 0 0 1-22.788 22.854m4.018-36.071a10.1 10.1 0 0 0-10.078 10.011 7.53 7.53 0 0 0 7.509 7.509 5.467 5.467 0 0 0 5.467-5.313v-2.81h9.704a13.3 13.3 0 0 0-12.602-9.397M48.45 18.464a5.47 5.47 0 0 0-4.72 2.722h10.472a7.5 7.5 0 0 0-5.752-2.722"/>
    <path xmlns="http://www.w3.org/2000/svg" d="M156.598 157.305c-.944-48.542 13.875-83.428 23.69-106.59 4.39-10.253 7.793-18.354 7.486-22.723-1.01-14.095-9.331-22.503-22.328-22.503H53.324V0h112.122c15.72 0 26.63 10.846 27.794 27.597.396 5.686-3.095 13.897-7.903 25.248-9.55 22.679-24.172 56.972-23.25 104.35Z"/>
    <path xmlns="http://www.w3.org/2000/svg" d="M184.832 195.286H70.404v-5.488h114.428a17.32 17.32 0 0 0 17.3-17.3 13.304 13.304 0 0 0-13.283-13.283H73.171v-5.489h115.678a18.793 18.793 0 0 1 18.772 18.771 22.81 22.81 0 0 1-22.79 22.79"/>
    <path xmlns="http://www.w3.org/2000/svg" d="M70.602 176.822h16.73v5.49h-16.73zm-24.83-140.75h27.025v5.488H45.771zm2.568-23.097h22.745v5.489H48.34zM171.396 37.28H89.197a2.744 2.744 0 0 1 0-5.489h82.199a2.744 2.744 0 0 1 0 5.489m-49.464 23.82H78.967a2.744 2.744 0 0 1 0-5.488h42.965a2.744 2.744 0 0 1 0 5.489m36.51 10.714H76.156a2.744 2.744 0 0 1 0-5.489h82.286a2.744 2.744 0 0 1 0 5.489m-5.796 10.911H70.404a2.744 2.744 0 0 1 0-5.489h82.242a2.744 2.744 0 0 1 0 5.49M107.97 99.344H65.004a2.744 2.744 0 0 1 0-5.489h42.965a2.744 2.744 0 0 1 0 5.489m44.677 12.119H62.632a2.744 2.744 0 1 1 0-5.489h90.014a2.744 2.744 0 0 1 0 5.489m-3.952 12.14H58.681a2.744 2.744 0 0 1 0-5.488h90.013a2.744 2.744 0 0 1 0 5.489m-3.183 12.14H55.497a2.744 2.744 0 0 1 0-5.488h90.014a2.744 2.744 0 1 1 0 5.488m0 12.141H55.497a2.744 2.744 0 1 1 0-5.488h90.014a2.744 2.744 0 1 1 0 5.488"/>
  </g>
</svg>
